<?xml version="1.0" encoding="UTF-8" standalone="no"?>
<!-- Created with Inkscape (http://www.inkscape.org/) -->

<svg
   width="1024"
   height="768"
   viewBox="0 0 270.93333 203.2"
   version="1.1"
   id="svg1"
   xml:space="preserve"
   inkscape:version="1.3 (0e150ed6c4, 2023-07-21)"
   sodipodi:docname="allgore-title.svg"
   inkscape:export-filename="allgore-title-bg.png"
   inkscape:export-xdpi="96"
   inkscape:export-ydpi="96"
   xmlns:inkscape="http://www.inkscape.org/namespaces/inkscape"
   xmlns:sodipodi="http://sodipodi.sourceforge.net/DTD/sodipodi-0.dtd"
   xmlns="http://www.w3.org/2000/svg"
   xmlns:svg="http://www.w3.org/2000/svg"><sodipodi:namedview
     id="namedview1"
     pagecolor="#ffffff"
     bordercolor="#000000"
     borderopacity="0.25"
     inkscape:showpageshadow="2"
     inkscape:pageopacity="0.0"
     inkscape:pagecheckerboard="0"
     inkscape:deskcolor="#d1d1d1"
     inkscape:document-units="mm"
     showgrid="true"
     inkscape:zoom="0.34134233"
     inkscape:cx="531.72427"
     inkscape:cy="420.39908"
     inkscape:window-width="1280"
     inkscape:window-height="649"
     inkscape:window-x="-8"
     inkscape:window-y="-8"
     inkscape:window-maximized="1"
     inkscape:current-layer="layer1"><inkscape:grid
       id="grid4"
       units="px"
       originx="0"
       originy="0"
       spacingx="135.46667"
       spacingy="101.6"
       empcolor="#0099e5"
       empopacity="0.30196078"
       color="#0099e5"
       opacity="0.14901961"
       empspacing="5"
       dotted="false"
       gridanglex="30"
       gridanglez="30"
       visible="true" /></sodipodi:namedview><defs
     id="defs1" /><g
     inkscape:label="Layer 1"
     inkscape:groupmode="layer"
     id="layer1"><rect
       style="fill:#ffffff;stroke-width:0.748804"
       id="rect1"
       width="270.93332"
       height="203.2"
       x="-7.1054274e-15"
       y="0" /><path
       style="fill:#1a1a1a;stroke-width:0.452595"
       d="m 19.012446,120.67239 c -0.417219,-0.26337 -1.338549,-1.94221 -2.047402,-3.73077 -1.171527,-2.95594 -1.467192,-3.35515 -3.248666,-4.38635 -3.647513,-2.11134 -3.594519,-1.64695 -2.266463,-19.861113 1.510906,-20.721945 2.80334,-30.033082 4.84643,-34.915404 1.042942,-2.492277 4.258336,-6.193877 4.905027,-5.646717 0.225325,0.19065 2.076315,3.218724 4.113305,6.729052 4.588411,7.90716 7.980175,12.965908 10.695909,15.952726 l 2.086807,2.295112 3.144682,-1.032012 c 1.729568,-0.567629 3.332073,-1.259119 3.561092,-1.536736 0.396775,-0.480966 -0.332535,-3.613245 -4.552788,-19.553501 l -1.33421,-5.039424 2.201647,-3.216478 c 1.210905,-1.769064 2.313806,-3.253025 2.450892,-3.297695 0.391555,-0.127587 5.185565,14.959752 8.618045,27.122049 1.717125,6.08429 3.352317,11.383309 3.633759,11.775598 0.960337,1.338571 13.173352,0.451352 15.708318,-1.141133 0.55602,-0.349295 1.703245,-2.080119 2.549389,-3.846278 l 1.538443,-3.211194 -1.200378,-4.590269 C 73.756068,67.017209 71.968505,60.698933 70.443927,55.50124 68.919336,50.303553 67.433682,44.913491 67.142455,43.523331 c -0.525341,-2.507795 -0.511789,-2.553177 1.731872,-5.80023 1.243742,-1.79996 2.408366,-3.320557 2.58804,-3.379102 0.49911,-0.162635 1.995158,4.726265 6.490442,21.20983 2.262218,8.295244 4.495231,15.778846 4.962249,16.630225 0.736955,1.343457 1.142578,1.577842 3.070312,1.774128 1.221642,0.124394 4.608854,-0.02856 7.527142,-0.339872 5.323843,-0.567943 7.118898,-0.534826 7.337288,0.135382 0.0646,0.198139 0.11665,1.94085 0.11564,3.872695 -9.6e-4,1.931838 0.10128,4.303303 0.22736,5.269929 0.25541,1.959534 -0.59061,1.722883 -1.281521,-0.358468 -0.21806,-0.65714 -0.66122,-1.185116 -0.984644,-1.173343 -1.0814,0.03938 -10.69185,1.303925 -11.221635,1.476552 -0.643883,0.209812 -0.781438,2.176367 -0.340717,4.871171 0.37105,2.268791 -0.07074,2.576807 -3.318788,2.313859 -1.491424,-0.120743 -1.881321,-0.433298 -3.544718,-2.84164 -1.461522,-2.11603 -2.097657,-2.693807 -2.917906,-2.65018 -3.355022,0.178453 -4.716825,1.784591 -4.191535,4.943581 0.179881,1.08176 0.397345,2.586555 0.483255,3.343989 0.15361,1.354309 0.13778,1.347834 -0.954637,-0.3907 -1.265714,-2.014327 -1.737427,-2.097025 -8.116032,-1.42286 -5.212246,0.550897 -5.327071,0.652173 -5.059662,4.462761 0.123578,1.760989 0.182895,3.283989 0.131813,3.384469 -0.05109,0.100471 -1.0379,0.209021 -2.192916,0.241251 -1.603505,0.0448 -2.559641,-0.285991 -4.043837,-1.398731 -1.822759,-1.366569 -4.10635,-1.746877 -3.740093,-0.622863 0.08966,0.275123 1.194516,2.318514 2.455254,4.540826 2.693162,4.74729 2.669669,5.90667 -0.07398,3.65063 -4.1016,-3.37267 -5.455429,-3.6064 -8.033577,-1.38692 -1.099543,0.94657 -1.222036,1.31902 -0.832859,2.53245 0.799558,2.4931 0.365684,2.82835 -2.254808,1.74213 l -2.376994,-0.98527 -2.989739,-9.860483 -2.989743,-9.860488 -2.24967,0.234212 c -1.237321,0.12882 -3.308884,0.57936 -4.603474,1.001198 -2.212415,0.72091 -2.323031,0.821287 -1.841489,1.671077 0.281776,0.497254 1.071695,2.221272 1.755375,3.831154 0.683683,1.609884 2.053443,4.458257 3.043915,6.32974 2.109621,3.98604 2.473207,4.96292 1.914904,5.14484 -0.504381,0.16435 -1.639567,-1.52525 -4.788617,-7.127323 -1.337249,-2.378936 -2.765853,-4.566379 -3.174677,-4.860981 -0.674217,-0.485847 -0.798159,-0.417633 -1.333226,0.733746 -0.968935,2.084997 -1.259646,5.958578 -1.221961,16.282098 0.01966,5.38526 -0.09219,9.9426 -0.24855,10.1274 -0.15636,0.1848 -0.625651,0.12048 -1.042871,-0.14285 z m 28.02454,-35.380775 c 1.282691,-1.455904 1.475418,-3.62366 0.442505,-4.977205 -1.013625,-1.328261 -2.313786,-1.054753 -3.755283,0.789988 -1.563003,2.000233 -1.793279,3.802523 -0.645628,5.053053 1.03229,1.124833 2.484408,0.807205 3.958406,-0.865836 z M 27.725154,79.276671 c -0.143642,-2.075656 -1.932056,-5.728242 -3.265328,-6.668997 -2.777979,-1.960129 -3.706035,0.517705 -2.100064,5.606992 0.962911,3.051423 1.587055,3.505191 3.820388,2.777464 1.384486,-0.451132 1.614804,-0.706859 1.545004,-1.715459 z"
       id="path4" /><g
       id="g6"
       transform="matrix(1.1823056,-0.38525148,0.38525148,1.1823056,-90.455459,84.142736)"><path
         style="fill:#1a1a1a;stroke-width:1.37564"
         d="m 547.62463,452.04269 c -0.87525,-1.05461 -2.6534,-5.23311 -3.95145,-9.28555 -2.23081,-6.96452 -2.63316,-7.39089 -7.34614,-7.78473 -2.74234,-0.22917 -8.75842,0.85415 -13.36907,2.40736 -4.61064,1.55322 -9.94114,2.82403 -11.84555,2.82403 -4.14985,0 -53.78889,-15.55921 -62.09468,-19.46339 -3.21496,-1.51121 -6.18522,-3.63324 -6.60057,-4.71562 -0.41534,-1.08238 -1.43555,-12.90737 -2.26713,-26.27776 -1.18774,-19.09698 -2.07755,-25.41847 -4.14962,-29.48006 l -2.63768,-5.17027 7.70298,-9.37674 c 4.23663,-5.15721 9.46073,-11.92175 11.6091,-15.03232 2.59326,-3.7547 8.68025,-8.69903 18.11028,-14.71059 l 14.20414,-9.05501 20.59593,0.78245 20.59593,0.78246 19.25892,8.91403 c 24.72747,11.44518 25.77876,12.2822 19.19419,15.28233 -5.48944,2.50116 -9.59348,1.98006 -30.90603,-3.92418 -10.96029,-3.03635 -24.8801,-6.11829 -30.9329,-6.84876 l -11.0051,-1.32814 -10.53283,10.92208 c -11.36186,11.78175 -13.89954,16.99876 -15.6056,32.08235 -1.6396,14.49597 -0.20079,18.34245 10.90662,29.15767 5.43929,5.2962 13.47204,12.0944 17.85056,15.10711 7.13132,4.90683 8.77156,5.45836 15.73964,5.29248 10.01335,-0.23838 19.2856,-3.91139 20.9544,-8.30065 1.43371,-3.77095 1.694,-14.20419 0.43613,-17.48212 -0.62893,-1.63899 -2.14184,-2.00269 -6.19036,-1.48815 -17.79711,2.26188 -15.27954,3.03354 -23.08352,-7.07538 -3.86977,-5.01273 -7.03595,-9.91349 -7.03595,-10.89058 0,-2.98812 6.95607,-10.24145 9.82173,-10.24145 1.48443,0 11.48298,2.21208 22.21901,4.91573 18.48263,4.65448 19.71918,4.79811 23.26695,2.70238 3.51668,-2.07735 3.91349,-2.04678 6.45776,0.49749 3.6757,3.67571 5.62388,11.38964 5.63309,22.30456 0.0101,11.96205 2.1771,23.0807 5.33846,27.39089 2.54492,3.46976 2.54238,3.47929 -2.42332,9.07988 -2.73401,3.08356 -5.81797,8.02041 -6.85324,10.97079 -3.45027,9.83275 -7.38617,18.43286 -8.43592,18.43286 -0.57079,0 -1.75391,-0.86287 -2.62916,-1.91748 z"
         id="path5"
         transform="scale(0.26458333)" /><path
         style="fill:#1a1a1a;stroke-width:1.37564"
         d="m 740.85109,482.96284 c -0.49096,-0.7944 -2.16349,-5.3236 -3.71672,-10.06489 -1.55322,-4.74128 -5.49208,-14.50135 -8.753,-21.68906 -3.26093,-7.1877 -6.67199,-16.78277 -7.58014,-21.32237 -2.21838,-11.08897 -3.43995,-13.06855 -8.06445,-13.06855 -10.1809,0 -17.44663,4.92998 -23.83348,16.1716 -2.68887,4.73274 -5.28121,7.5245 -7.50535,8.08272 -1.86874,0.46903 -10.00988,0.56056 -18.09143,0.2034 -11.70819,-0.51741 -17.30491,-1.53409 -27.54493,-5.00371 -25.748,-8.72416 -37.88543,-19.45091 -50.1938,-44.35998 -7.3243,-14.82256 -11.92722,-28.36338 -11.92722,-35.08737 0,-1.9912 1.64727,-3.9861 4.85355,-5.87786 4.65912,-2.74895 5.56394,-4.24334 12.38756,-20.45937 l 1.88524,-4.48017 4.72518,2.25328 c 4.69043,2.23671 4.78515,2.21628 12.87504,-2.77709 15.17,-9.36345 34.29265,-9.83921 52.33854,-1.30214 10.98287,5.19574 18.08306,13.40363 27.71534,32.03923 8.27606,16.0117 8.4037,16.42956 8.48179,27.76572 0.15127,21.96196 1.50855,24.51617 14.021,26.38552 l 5.15864,0.7707 v -29.53302 -29.53302 l -8.23,-17.49605 -8.23,-17.49606 4.93419,-0.83847 c 6.20078,-1.0537 6.95371,-2.32384 8.09105,-13.64892 l 0.92361,-9.19699 11.06037,-0.85291 c 9.2806,-0.71567 11.83202,-1.46641 15.85585,-4.66546 2.63751,-2.09689 5.61875,-4.4063 6.62496,-5.132 1.22474,-0.88333 8.78952,0.16261 22.88582,3.1643 32.42077,6.90373 47.18449,15.00114 53.30915,29.23832 l 3.02404,7.02954 6.4171,-0.9623 c 9.69645,-1.45407 13.8475,-4.19389 16.804,-11.09116 1.44108,-3.36188 3.49199,-6.1125 4.5576,-6.1125 1.06561,0 4.92655,1.32221 8.57986,2.93824 5.47129,2.42021 10.89844,3.15229 30.78278,4.15236 43.93736,2.2098 60.79064,3.56008 62.21525,4.9847 1.34789,1.34789 -2.94594,22.72401 -4.97144,24.74951 -0.98185,0.98185 -35.64049,2.84031 -55.45749,2.97373 l -14.10028,0.0949 v 13.94633 13.94634 l 8.59773,-0.83338 c 4.72875,-0.45836 18.6417,-1.25359 30.91765,-1.76719 20.24418,-0.84696 22.40325,-0.71665 23.21596,1.40123 1.19364,3.11057 -4.1058,8.76455 -11.14496,11.89058 -3.0264,1.344 -13.85954,3.75433 -24.07364,5.3563 -24.57248,3.8539 -25.66164,4.34059 -28.10166,12.55704 -1.0852,3.65423 -2.38368,9.38214 -2.88553,12.72867 l -0.91244,6.08461 7.35209,0.91484 c 4.04364,0.50317 17.25666,0.11752 29.36227,-0.85698 26.53508,-2.13608 56.34154,-2.11053 61.59364,0.0528 l 3.8169,1.57218 -3.48362,6.87459 c -5.45816,10.77114 -6.07349,10.96883 -38.71575,12.43784 -15.79254,0.7107 -35.83264,1.31792 -44.53355,1.34939 -8.7009,0.0314 -16.4983,0.51197 -17.32756,1.06783 -0.82925,0.55587 -1.92436,2.71302 -2.43357,4.79367 -1.13815,4.65053 -2.61579,4.79947 -4.91901,0.49586 -2.48227,-4.63819 -7.51189,-6.60351 -18.90698,-7.38791 l -9.884,-0.68039 -2.27681,7.83194 c -4.50969,15.5128 -7.93529,13.64477 -51.79663,-28.24559 -19.73045,-18.84381 -36.65668,-34.26148 -37.61388,-34.26148 -0.95719,0 -2.19434,1.08332 -2.74923,2.40737 -0.55489,1.32405 -1.41358,23.26693 -1.9082,48.76195 -0.49463,25.49502 -1.28294,46.73821 -1.75182,47.20708 -0.46888,0.46888 -1.2542,0.20254 -1.74518,-0.59188 z m 110.1081,-51.23521 c 7.87671,-3.11806 8.1382,-3.38556 8.52248,-8.71929 0.68657,-9.52913 -4.76508,-37.86566 -7.93386,-41.23869 l -2.79528,-2.97543 3.44679,-3.23811 c 4.04351,-3.79867 4.54339,-11.69792 1.62218,-25.63366 -2.24363,-10.70332 -4.56776,-14.12553 -12.47924,-18.3753 -10.54195,-5.66278 -12.74877,-2.35935 -13.04611,19.52889 l -0.16275,11.98155 -8.93269,2.75902 c -10.87812,3.35991 -26.83387,15.33461 -26.83387,20.13866 0,3.5663 14.93873,18.13033 23.51103,22.92132 4.61822,2.58108 6.67245,5.25566 11.77259,15.32784 6.12632,12.09876 6.21597,12.19504 10.68043,11.47055 2.47623,-0.40184 8.15896,-2.17814 12.6283,-3.94735 z m -194.5042,-20.57896 c 4.00939,-0.84832 11.15878,-3.08077 15.88753,-4.96102 l 8.59773,-3.41862 -0.0181,-9.13926 c -0.021,-10.60724 -4.17447,-32.19189 -7.39186,-38.41364 -4.37844,-8.46697 -13.59467,-13.16709 -29.07804,-14.82929 l -8.28741,-0.88969 -9.90198,10.42422 c -11.50759,12.11449 -18.58249,24.80034 -18.78358,33.68039 -0.12622,5.57393 0.40255,6.49044 7.62193,13.21095 15.83466,14.74048 24.78204,17.84223 41.35375,14.33596 z m 118.37248,-67.83928 c 6.62025,-2.87606 12.03682,-5.7495 12.03682,-6.38541 0,-6.70327 -3.42468,-21.86719 -5.08222,-22.50325 -1.11249,-0.4269 -9.86441,-1.16606 -19.4487,-1.64258 -22.27272,-1.10736 -22.38168,-1.02123 -23.27832,18.40189 l -0.61937,13.417 3.92366,2.45047 c 6.25131,3.90417 17.98691,2.55303 32.46813,-3.73812 z"
         id="path6"
         transform="scale(0.26458333)" /></g></g><g
     inkscape:groupmode="layer"
     id="layer2"
     inkscape:label="Layer 2" /></svg>
