<?xml version="1.0" encoding="UTF-8" standalone="no"?>
<!-- Created with Inkscape (http://www.inkscape.org/) -->

<svg
   width="1200"
   height="630"
   viewBox="0 0 317.49999 166.6875"
   version="1.1"
   id="svg5"
   inkscape:version="1.1.1 (3bf5ae0d25, 2021-09-20)"
   sodipodi:docname="og-share-image.svg"
   inkscape:export-filename="C:\Users\garet\Documents\profile\images\og-share-image.png"
   inkscape:export-xdpi="96"
   inkscape:export-ydpi="96"
   xmlns:inkscape="http://www.inkscape.org/namespaces/inkscape"
   xmlns:sodipodi="http://sodipodi.sourceforge.net/DTD/sodipodi-0.dtd"
   xmlns="http://www.w3.org/2000/svg"
   xmlns:svg="http://www.w3.org/2000/svg">
  <sodipodi:namedview
     id="namedview7"
     pagecolor="#ffffff"
     bordercolor="#666666"
     borderopacity="1.0"
     inkscape:pageshadow="2"
     inkscape:pageopacity="0.0"
     inkscape:pagecheckerboard="0"
     inkscape:document-units="mm"
     showgrid="true"
     units="px"
     width="1200px"
     gridtolerance="1"
     objecttolerance="1"
     inkscape:zoom="0.64"
     inkscape:cx="610.15625"
     inkscape:cy="325"
     inkscape:window-width="1920"
     inkscape:window-height="974"
     inkscape:window-x="-11"
     inkscape:window-y="-11"
     inkscape:window-maximized="1"
     inkscape:current-layer="layer1">
    <inkscape:grid
       type="xygrid"
       id="grid3799"
       spacingy="83.343749"
       spacingx="158.75" />
  </sodipodi:namedview>
  <defs
     id="defs2">
    <rect
       x="174.93813"
       y="166.19123"
       width="623.94601"
       height="230.33521"
       id="rect700" />
    <pattern
       id="EMFhbasepattern"
       patternUnits="userSpaceOnUse"
       width="6"
       height="6"
       x="0"
       y="0" />
    <pattern
       id="EMFhbasepattern-8"
       patternUnits="userSpaceOnUse"
       width="6"
       height="6"
       x="0"
       y="0" />
  </defs>
  <g
     inkscape:label="Layer 1"
     inkscape:groupmode="layer"
     id="layer1">
    <text
       xml:space="preserve"
       transform="scale(0.26458333)"
       id="text698"
       style="fill:black;fill-opacity:1;line-height:1.25;stroke:none;font-family:sans-serif;font-style:normal;font-weight:normal;font-size:40px;white-space:pre;shape-inside:url(#rect700)" />
    <rect
       style="fill:#ffffff;stroke-width:0.437217"
       id="rect4226"
       width="317.5"
       height="166.6875"
       x="-4.4408921e-16"
       y="0" />
    <path
       d="m -49.050948,159.96425 c 0,-20.27218 -0.2764,-23.79812 -1.86599,-23.79812 -1.55878,0 -1.86613,-2.70887 -1.86613,-16.44799 0,-9.53952 -0.52261,-16.79157 -1.24403,-17.26568 -0.68426,-0.44911 -1.3235,-3.012584 -1.42067,-5.696359 l -0.17649,-4.879993 -0.75648,5.18501 c -1.26914,8.698112 -3.86673,7.509022 -3.86673,-1.770041 v -8.042696 h -5.49462 c -3.22979,0 -5.75469,-0.6811 -6.12567,-1.65235 -0.49236,-1.28988 -0.88835,-1.26279 -1.80298,0.12174 -0.98054,1.48461 -1.61198,1.48461 -3.8649,0 -1.82613,-1.20328 -2.98082,-1.32838 -3.58794,-0.38891 -1.14547,1.77276 -6.22023,2.13665 -7.16431,0.51336 -1.16522,-2.00408 -4.30533,-1.41633 -4.30533,0.80487 0,1.6463 -0.90633,1.86137 -4.66526,1.10585 -2.56584,-0.51537 -6.438582,-0.98883 -8.605922,-1.05173 -2.16759,-0.0609 -4.36026,-0.56003 -4.87268,-1.10518 -1.45535,-1.54892 -7.98152,-1.16335 -7.98152,0.47141 0,0.80486 -0.80352,1.13631 -1.78576,0.73589 -0.98209,-0.40107 -1.99539,-0.0609 -2.25168,0.75685 -0.29736,0.94827 -1.33954,1.08492 -2.8796,0.37877 -1.32744,-0.60939 -3.11321,-0.9875 -3.96853,-0.8414 -0.85533,0.14678 -1.55512,-0.35444 -1.55512,-1.1133 0,-2.05548 -3.20296,-1.66726 -4.97621,0.60332 -2.12685,2.72306 -3.73221,2.48566 -3.73221,-0.55328 0,-6.5662 0.42667,-6.71838 18.79407,-6.71838 10.69318,0 17.28388,0.50388 17.28388,1.32161 0,0.72778 1.39956,1.32233 3.11018,1.32233 1.710492,0 3.110082,-0.59455 3.110082,-1.32233 0,-2.07169 33.2205,-1.74839 34.00992,0.33076 0.34518,0.90906 0.67178,-1.81064 0.72575,-6.04405 0.0633,-4.95981 0.76168,-8.4012 1.96438,-9.67954 1.09683,-1.16538 1.86607,-4.396405 1.86607,-7.837775 0,-4.32336 0.48823,-5.85534 1.86607,-5.85534 1.38228,0 1.86613,1.54281 1.86613,5.94935 0,3.2723 0.52918,5.949355 1.17591,5.949355 0.64672,0 1.38551,2.82657 1.64187,6.2801 0.25627,3.45424 0.56679,-2.19752 0.69016,-12.559515 0.18754,-15.75944 0.52932,-18.84029 2.09032,-18.84029 1.55511,0 1.86613,2.64391 1.86613,15.86493 0,13.221025 0.31095,15.865625 1.86607,15.865625 1.43252,0 1.86616,-1.68957 1.86616,-7.271655 0,-5.58209 0.43343,-7.27166 1.86606,-7.27166 1.38226,0 1.86614,-1.54213 1.86614,-5.94936 0,-3.27228 0.55971,-5.94935 1.24402,-5.94935 0.70175,0 1.24402,-3.74574 1.24402,-8.59397 0,-6.45731 0.43012,-8.59329 1.73023,-8.59329 1.38724,0 1.91042,5.10931 2.63983,25.78055 0.72508,20.554235 1.25712,25.781235 2.62401,25.781235 1.26605,0 1.71444,-2.07444 1.71444,-7.9325 0,-6.16984 0.4147,-7.932465 1.86613,-7.932465 1.4929,0 1.86607,1.983115 1.86607,9.915585 0,7.93247 0.37324,9.9156 1.86603,9.9156 1.58102,0 1.86616,-3.23171 1.86616,-21.153485 0,-13.22103 0.46649,-21.1535 1.24409,-21.1535 0.68431,0 1.24402,-1.18974 1.24402,-2.64461 0,-1.46841 0.8294,-2.64394 1.86607,-2.64394 1.574091,0 1.907251,3.46573 2.128532,22.14506 0.18768,15.843305 0.37712,18.289045 0.66557,8.593955 0.32208,-10.825975 0.76975,-13.551755 2.225671,-13.551755 1.330791,0 1.822641,1.60571 1.822641,5.94935 0,3.2723 0.5598302,5.949365 1.2441002,5.949365 0.69112,0 1.24405,3.52591 1.24405,7.93316 0,6.16984 0.4146201,7.93246 1.8660302,7.93246 1.02648,0 1.8661599,-0.89282 1.8661599,-1.98312 0,-1.09101 0.8397501,-1.98312 1.8661401,-1.98312 1.49100992,0 1.86604989,-1.97163 1.86604989,-9.80805 0,-5.394055 0.3398,-10.748205 0.75513997,-11.898715 0.95955994,-2.65745 4.22108904,-2.74065 4.22108904,-0.10821 0,1.2337 1.1749494,1.98312 3.1102382,1.98312 h 3.1100585 v -17.84875 c 0,-14.98364 0.29953,-17.84806 1.86616,-17.84806 1.02639,0 1.86604,0.89213 1.86604,1.98311 0,1.09099 0.76365,1.98313 1.69707,1.98313 1.94796,0 3.27923,8.12591 3.27923,20.01583 0,4.28413 0.55623,7.7485 1.24402,7.7485 0.68428,0 1.2441,3.27229 1.2441,7.27166 0,5.424495 0.45195,7.270975 1.77956,7.270975 0.97888,0 2.02228,1.33923 2.31876,2.9747 l 0.53912,2.97534 0.16943,-2.97534 c 0.0932,-1.63547 0.72923,-2.9747 1.41352,-2.9747 0.6911,0 1.24411,-3.525235 1.24411,-7.932465 0,-5.80393 0.45363,-7.93247 1.69066,-7.93247 1.2429,0 1.8686,3.03014 2.36236,11.4408 0.50403,8.586525 1.16874,11.737065 2.66359,12.625815 1.09543,0.65135 1.99178,1.79241 1.99178,2.53574 0,2.46399 3.50856,5.12822 6.75349,5.12822 3.1489,0 3.19906,-0.15423 3.19906,-9.82158 0,-6.96729 0.54226,-10.397175 1.86614,-11.804025 1.3844,-1.47178 1.86606,-5.07886 1.86606,-13.9772 0,-9.77896 0.34446,-11.99273 1.86605,-11.99273 1.0263,0 1.86607,-0.5952 1.86607,-1.32229 0,-0.72711 0.78041,-1.32231 1.73409,-1.32231 1.28922,0 1.96252,3.06802 2.62483,11.96094 1.30483,17.52002 3.63522,15.01068 4.07747,-4.39033 0.322,-14.13073 0.55205,-15.41922 2.89287,-16.20855 3.23302,-1.09098 3.5448,-0.70679 4.46715,5.49958 0.41865,2.81709 1.2062,5.43532 1.74992,5.81948 0.5438,0.38352 1.38033,4.84553 1.859,9.91561 0.47849,5.07007 1.3564,9.55711 1.95069,9.97173 0.59429,0.41394 1.44061,5.71533 1.88078,11.780335 1.04845,14.45 2.32608,15.89134 14.08523,15.89134 h 8.708378 v -11.23789 c 0,-11.615985 0.82435,-13.195325 4.72435,-9.050525 1.39091,1.478555 2.21448,5.122855 2.53972,11.237905 0.35035,6.59054 0.95027,9.05051 2.20679,9.05051 1.34389,0 1.72577,-2.63378 1.72577,-11.89941 0,-7.051145 0.50684,-11.898695 1.24408,-11.898695 0.68421,0 1.25168,-1.33854 1.26105,-2.97467 0.029,-5.04775 1.43557,-8.92403 3.23829,-8.92403 1.07194,0 1.72098,1.45418 1.72098,3.85598 0,2.12109 0.52778,4.05416 1.17292,4.29698 0.64504,0.24214 1.56482,6.53847 2.04384,13.992075 l 0.87115,13.55177 h 6.66451 6.6645 v -7.27164 c 0,-5.5821 0.43354,-7.27167 1.86614,-7.27167 1.4326,0 1.86607,1.68957 1.86607,7.27167 v 7.27164 h 7.4644 7.46443 v -3.96622 c 0,-2.4958 0.63813,-3.96625 1.72096,-3.96625 2.3105,0 3.21788,-4.16779 3.23831,-14.874075 0.0134,-7.04305 0.41029,-8.92403 1.88306,-8.92403 1.02639,0 1.86609,-0.59521 1.86609,-1.32231 0,-0.7271 0.83975,-1.32163 1.86614,-1.32163 1.24401,0 1.86606,1.32163 1.86606,3.96624 0,2.64393 0.62205,3.96624 1.86614,3.96624 1.16116,0 1.86613,1.24858 1.86613,3.30542 0,1.81741 0.51197,3.30475 1.13784,3.30475 0.62588,0 1.53145,4.462005 2.01225,9.916265 l 0.87432,9.91559 h 12.14946 c 14.63124,0 13.64273,1.79305 13.66666,-24.789655 0.01,-11.66671 0.49068,-18.83961 1.26105,-18.83961 0.68428,0 1.24409,-0.89282 1.24409,-1.98314 0,-1.09098 0.83974,-1.98312 1.86607,-1.98312 1.2441,0 1.86613,-1.32229 1.86613,-3.96691 0,-2.45252 0.64233,-3.96623 1.68327,-3.96623 1.30743,0 1.83564,4.32065 2.36481,19.34217 0.37462,10.63796 1.21259,19.710785 1.86224,20.161935 0.64954,0.45114 1.50062,1.71256 1.89134,2.80356 0.39081,1.09029 0.75462,-2.33011 0.80858,-7.602405 0.054,-5.27164 0.58878,-9.58486 1.18816,-9.58486 0.59959,0 1.35462,-3.39132 1.67807,-7.53544 0.32346,-4.1448 1.23252,-7.76406 2.02017,-8.04272 0.93146,-0.33007 1.43805,-4.51342 1.44911,-11.96568 0.0196,-13.16826 0.80818,-17.4077459 3.23831,-17.4077459 1.20552,0 1.72099,1.7490981 1.72099,5.8391059 0,3.21141 0.54712,6.03796 1.21573,6.2801 0.66871,0.24214 1.59105,5.64635 2.04963,12.00896 0.45864,6.36261 1.31119,11.56864 1.89449,11.56864 0.58332,0 1.06053,5.2669 1.06053,11.7046 0,17.229175 1.26147,27.958445 3.28733,27.958445 1.17226,0 1.68889,-1.82009 1.68889,-5.94935 0,-3.27227 0.5599,-5.95006 1.24408,-5.95006 0.73019,0 1.24411,-4.56547 1.24411,-11.053215 0,-15.00664 1.16908,-23.32126 3.27925,-23.32126 1.18186,0 1.69697,-1.80591 1.69697,-5.94936 0,-4.40655 0.48377,-5.94935 1.86606,-5.94935 1.24409,0 1.86613,1.32229 1.86613,3.96623 0,2.64393 0.62196,3.96624 1.86616,3.96624 1.43251,0 1.86605,1.68957 1.86605,7.27166 0,3.99938 0.55982,7.27167 1.2441,7.27167 0.75462,0 1.25074,5.85128 1.26096,14.87339 0.0101,8.180705 0.35452,16.212615 0.76712,17.848755 0.84198,3.33852 2.94814,4.04672 2.94814,0.99152 0,-1.09096 0.83974,-1.98309 1.86607,-1.98309 1.02639,0 1.86613,0.89213 1.86613,1.98309 0,1.10183 1.10584,1.98314 2.48819,1.98314 1.7949,0 2.48803,-0.88131 2.48803,-3.16408 0,-1.74028 0.83976,-3.50628 1.86607,-3.92496 1.02638,-0.418 1.86613,-1.67201 1.86613,-2.7853 0,-1.11397 0.55983,-2.02507 1.24411,-2.02507 0.6842,0 1.24408,-1.70172 1.24408,-3.78157 0,-8.213175 1.60111,-16.049595 3.27916,-16.049595 1.06939,0 1.69708,-1.51981 1.69708,-4.10963 0,-3.6781 0.31355,-4.02576 2.98668,-3.31287 2.96805,0.79136 2.98935,0.72102 3.42117,-11.31567 0.29299,-8.1665 0.94101,-12.29102 1.98953,-12.66233 0.85533,-0.30235 1.5552,-2.28547 1.5552,-4.40657 0,-5.2398394 3.20024,-5.0301594 4.1987,0.27529 0.42759,2.2726 0.77752,6.68525 0.77752,9.80602 0,3.12077 0.58816,5.8824 1.30693,6.13671 0.79914,0.2834 1.5988,8.80228 2.05806,21.92524 0.41319,11.804015 1.22459,21.461915 1.80332,21.461915 0.57853,0 1.052,1.78425 1.052,3.96625 0,3.5252 0.41474,3.96622 3.7322,3.96622 3.31749,0 3.73212,-0.44102 3.73212,-3.96622 0,-2.64464 0.62205,-3.96625 1.86616,-3.96625 1.53435,0 1.86605,-2.35038 1.86605,-13.221015 0,-10.25447 0.37914,-13.22103 1.68888,-13.22103 1.85269,0 3.28743,10.4709 3.28743,23.991535 0,5.99741 0.41991,7.73837 1.86615,7.73837 1.02628,0 1.86597,0.59523 1.86597,1.32229 0,0.72713 1.67959,1.32232 3.73228,1.32232 h 3.73221 v -13.3157 c 0,-10.073195 0.4544,-13.797975 1.86605,-15.298845 1.02639,-1.0903 1.86615,-3.66187 1.86615,-5.7133 0,-3.40552 1.83695,-5.33521 5.07796,-5.33521 0.62834,0 1.14235,1.80321 1.14235,4.0075 0,2.21105 0.77889,4.32539 1.73742,4.71634 0.95562,0.38959 2.10947,3.346 2.56439,6.56891 0.45483,3.22358 1.35248,5.860745 1.99478,5.860745 0.64233,0 1.17394,1.93374 1.18153,4.29699 0.008,2.36324 0.36066,6.52764 0.78474,9.25478 0.73632,4.73326 0.98894,4.95779 5.58465,4.95779 3.44927,0 4.81351,-0.56206 4.81351,-1.98313 0,-1.09096 0.83967,-1.98309 1.86606,-1.98309 1.49288,0 1.86614,-1.98313 1.86614,-9.91628 0,-7.773535 0.3891,-9.915605 1.80111,-9.915605 1.28529,0 1.93186,1.98786 2.25797,6.940925 0.42809,6.50262 0.4715,6.37749 0.68709,-1.98312 0.17904,-6.942275 0.64444,-8.924045 2.09628,-8.924045 1.30327,0 1.86606,1.39535 1.86606,4.62773 0,2.5445 0.55981,4.627055 1.24402,4.627055 0.68428,0 1.244,1.43865 1.244,3.19722 0,4.04806 1.18357,7.37987 2.62137,7.37987 0.61097,0 1.11084,-0.89283 1.11084,-1.98312 0,-1.09099 0.83976,-1.98382 1.86615,-1.98382 1.02637,0 1.86614,-0.59449 1.86614,-1.3216 0,-0.72712 0.79506,-1.3223 1.76704,-1.3223 1.25669,0 2.01718,-2.48229 2.63302,-8.593305 0.6039,-5.99264 1.38704,-8.59396 2.58721,-8.59396 1.36986,0 1.72115,3.23778 1.72115,15.864945 0,9.69576 0.48385,15.86563 1.24409,15.86563 0.68421,0 1.24401,-2.60332 1.24401,-5.7843 0,-8.41678 1.30907,-14.047565 3.26572,-14.047565 1.12549,0 1.71058,1.582715 1.71058,4.627725 0,6.93078 2.04955,5.57329 2.99275,-1.98311 0.565,-4.526955 1.39991,-6.610855 2.64836,-6.610855 1.11544,0 1.82332,-1.28307 1.82332,-3.30542 0,-2.05617 0.70496,-3.30475 1.86604,-3.30475 1.2441,0 1.86607,-1.3223 1.86607,-3.96624 0,-2.6446 0.62205,-3.96691 1.86613,-3.96691 1.49289,0 1.86607,1.9838 1.86607,9.91627 0,7.93248 0.37325,9.915595 1.86613,9.915595 1.34773,0 1.86617,1.46908 1.86617,5.28855 0,2.9084 0.5598,5.28854 1.24401,5.28854 0.68421,0 1.24408,1.78425 1.24408,3.96625 0,3.5252 0.41465,3.96622 3.73214,3.96622 h 3.73228 l 0.0169,-10.90781 c 0.0194,-12.426295 0.83226,-16.856535 3.09304,-16.856535 0.86682,0 1.91347,1.33854 2.32609,2.97468 1.26827,5.02949 0.89263,27.433615 -0.45986,27.433615 -0.71879,0 -1.24411,4.18673 -1.24411,9.915572 0,7.933087 -0.37325,9.916187 -1.86604,9.916187 -1.49936,0 -1.86616,2.02707 -1.86616,10.31193 0,10.17735 -1.12915,13.48548 -4.60304,13.48548 -1.08742,0 -1.61726,-1.94927 -1.61726,-5.94934 0,-5.06804 -0.36868,-5.94937 -2.48819,-5.94937 -2.11955,0 -2.48812,-0.88131 -2.48812,-5.94933 0,-3.27227 -0.55983,-5.94937 -1.24401,-5.94937 -0.68427,0 -1.25271,-1.63615 -1.26317,-3.63617 -0.01,-1.999321 -0.51052,-4.460619 -1.11118,-5.468393 -0.88547,-1.485961 -1.5226,-1.298621 -3.36755,0.991554 -2.98686,3.707109 -4.21062,3.567802 -4.21062,-0.480907 0,-2.056818 -0.70497,-3.305389 -1.86607,-3.305389 -1.46801,0 -1.86613,1.839708 -1.86613,8.622285 0,7.91354 -0.25543,8.74546 -3.11017,10.12797 -1.71057,0.82788 -3.11022,2.30305 -3.11022,3.27703 0,0.97395 -1.11963,1.77072 -2.48804,1.77072 -2.21165,0 -2.48819,-0.88131 -2.48819,-7.93245 0,-4.40724 -0.55291,-7.93252 -1.244,-7.93252 -0.68429,0 -1.24411,0.89216 -1.24411,1.98317 0,3.44472 -3.42433,2.14407 -4.31807,-1.63954 -1.10897,-4.696016 -3.22509,-6.01355 -5.17613,-3.223565 -1.30131,1.861371 -1.96345,1.950648 -4.11483,0.554627 -2.2211,-1.441341 -2.56379,-1.343921 -2.56379,0.727077 0,4.884741 -5.53535,7.607801 -6.60686,3.250621 -0.3129,-1.27225 -0.63389,-0.38011 -0.71324,1.98312 -0.0965,2.86984 -0.76407,4.29701 -2.01046,4.29701 -1.24401,0 -1.86606,1.32161 -1.86606,3.96624 0,2.1813 -0.49433,3.96621 -1.09858,3.96621 -0.60426,0 -1.5839,3.96895 -2.17717,8.8199 -1.33214,10.8943 -4.18857,13.0979 -4.18857,3.23032 0,-5.39338 -0.35913,-6.53236 -1.86614,-5.91755 -1.36474,0.55597 -1.86607,-0.16569 -1.86607,-2.68586 0,-2.18266 -0.68462,-3.44681 -1.86614,-3.44681 -1.5403,0 -1.86615,-2.42407 -1.86615,-13.8818 0,-7.6355 -0.51314,-13.882429 -1.14038,-13.882429 -0.62724,0 -1.36007,0.70072 -1.62851,1.556306 -0.73001,2.327368 -3.45141,0 -3.45141,-2.956426 0,-1.41155 -0.75878,-2.56611 -1.68616,-2.56611 -1.71067,0 -3.26188,11.114056 -3.28129,23.508489 -0.006,3.80529 -0.62043,5.91017 -1.87483,6.42148 -1.15145,0.47007 -1.86623,2.47957 -1.86623,5.2473 0,2.4667 -0.55981,4.48568 -1.24392,4.48568 -0.71103,0 -1.24418,3.96622 -1.24418,9.25479 0,5.09033 -0.54006,9.25479 -1.20026,9.25479 -2.60356,0 -3.77596,-5.69573 -3.77596,-18.34453 0,-7.27643 -0.49638,-13.55583 -1.1031,-13.95424 -0.60664,-0.39839 -1.47177,-2.8137 -1.92243,-5.3663 -0.45073,-2.5533 -1.32327,-4.64197 -1.93903,-4.64197 -0.61574,0 -1.32923,-2.826485 -1.58541,-6.280017 l -0.466,-6.280052 -0.22418,6.863069 c -0.12337,3.774159 -0.78407,7.23037 -1.46837,7.68017 -0.68418,0.44906 -1.24401,6.02238 -1.24401,12.38501 0,8.12455 -0.54379,12.33226 -1.82654,14.1348 -1.10727,1.55566 -1.84213,5.60372 -1.86614,10.27814 -0.0284,5.56515 -0.47254,7.56112 -1.59464,7.16814 -0.85525,-0.29894 -1.734,-1.83635 -1.95256,-3.41499 -0.21872,-1.57931 -1.19846,-2.8712 -2.17716,-2.8712 -1.45798,0 -1.77957,-3.31963 -1.77957,-18.36819 0,-15.1074 -0.33127,-18.50347 -1.86613,-19.12912 -1.39515,-0.56879 -1.86607,-2.940147 -1.86607,-9.396071 v -8.635178 l -9.01944,0.0135 c -8.79076,0.0135 -9.0754,0.11227 -11.22521,4.12653 -1.26701,2.36525 -2.54134,8.410607 -2.99422,14.203699 -0.59667,7.63214 -1.42222,10.80433 -3.39266,13.03838 -3.66792,4.15836 -4.47012,3.7471 -4.47012,-2.29087 0,-4.69671 -0.333,-5.28788 -2.97818,-5.28788 -2.85507,0 -3.01465,-0.49169 -3.86418,-11.899309 l -0.88617,-11.89869 h -6.57724 c -7.94427,0 -8.08739,0.27255 -8.08739,15.406959 0,8.18813 -0.50217,11.75737 -1.85669,13.19665 -2.97273,3.15933 -4.36276,0.87389 -4.37741,-7.19724 -0.0196,-10.79685 -1.26121,-17.440119 -3.25916,-17.440119 -0.93688,0 -1.70335,-0.89217 -1.70335,-1.98313 0,-1.42106 -1.36423,-1.98312 -4.81358,-1.98312 -4.59573,0 -4.84835,0.22453 -5.58456,4.9578 -0.42409,2.727104 -0.77727,7.1891 -0.78484,9.915462 -0.0123,4.403207 -0.3616,4.957837 -3.12379,4.957837 -2.92045,0 -3.11127,-0.42341 -3.12716,-6.940895 -0.0261,-10.642634 -0.91616,-12.890204 -5.10436,-12.890204 h -3.58714 v 15.755279 c 0,10.70696 -0.45883,15.91705 -1.43217,16.262 -0.78765,0.27932 -1.69673,3.89859 -2.02018,8.04273 -0.53648,6.87661 -0.84655,7.53543 -3.54412,7.53543 -2.32378,0 -2.95605,0.70681 -2.95605,3.30542 0,2.38963 -0.66852,3.3054 -2.41301,3.3054 -1.87056,0 -2.52498,-1.1153 -2.91119,-4.95779 -0.43693,-4.34972 -0.61822,-4.58645 -1.47753,-1.92965 -2.19856,6.79885 -3.78364,1.77338 -4.39488,-13.93395 -0.34219,-8.79078 -0.9019,-16.18014 -1.24401,-16.42092 -0.34219,-0.24077 -1.74176,-1.09641 -3.11024,-1.901257 -1.36849,-0.805544 -2.59079,-2.292868 -2.71628,-3.305382 -1.48454,-11.98118 -1.34586,-11.75731 -7.29261,-11.75731 h -5.54197 v 6.65212 c 0,4.693263 -0.54943,6.875901 -1.86607,7.412918 -1.4068,0.573567 -1.86606,2.984131 -1.86606,9.795851 0,4.96997 -0.5599,9.40294 -1.24409,9.85271 -0.68421,0.44911 -1.24401,2.79137 -1.24401,5.20467 0,2.41263 -0.83977,5.12759 -1.86614,6.03322 -1.17665,1.03755 -1.86615,3.9527 -1.86615,7.8892 0,6.07989 -2.49398,10.62037 -5.83394,10.62037 -1.31894,0 -2.84451,-10.03668 -2.86367,-18.84031 -0.006,-2.72645 -0.57062,-4.95778 -1.25492,-4.95778 -0.6882,0 -1.24401,-3.47183 -1.24401,-7.77084 0,-5.29461 -0.59471,-8.29503 -1.86605,-9.41642 -1.02639,-0.90498 -1.86614,-2.99699 -1.86614,-4.64801 0,-1.65103 -0.83967,-3.344004 -1.86615,-3.762661 -1.57386,-0.641867 -1.86607,1.109244 -1.86607,11.183111 0,11.48883 -1.23295,17.05875 -3.77595,17.05875 -0.66012,0 -1.20033,-2.87325 -1.20033,-6.38496 0,-5.77077 -0.26906,-6.37481 -2.79915,-6.27942 -2.66035,0.0987 -2.84604,-0.54448 -3.74541,-12.99777 -0.52046,-7.206014 -1.56874,-13.899349 -2.32939,-14.873349 -2.89832,-3.71189 -4.56038,-1.82619 -5.43276,6.161054 -0.59904,5.485307 -1.40441,7.932415 -2.61035,7.932415 -1.38961,0 -1.7439,2.93952 -1.7439,14.46551 0,8.21724 -0.53732,14.81798 -1.24409,15.28194 -0.68421,0.4498 -1.24411,1.97229 -1.24411,3.38317 0,1.41162 -0.83974,2.56618 -1.86603,2.56618 -1.58492,0 -1.89757,-3.73424 -2.07525,-24.78898 -0.11503,-13.634245 -0.4287,-22.558219 -0.69714,-19.831792 -0.28414,2.887395 -1.15556,4.957773 -2.08618,4.957773 -2.597567,0 -5.715979,4.564759 -5.715979,8.367309 0,1.94256 -0.534517,3.532 -1.187714,3.532 -0.653204,0 -1.563641,2.12924 -2.023148,4.7326 -0.459507,2.60334 -1.604577,5.04641 -2.544477,5.4299 -0.93997,0.3835 -1.70905,2.08593 -1.70905,3.78291 0,1.69704 -0.56416,3.45628 -1.25363,3.90879 -2.36746,1.55495 -4.96651,-3.05584 -4.9804,-8.83612 -0.0231,-9.63557 -1.31723,-15.51054 -3.24373,-14.7246 -1.36304,0.55529 -1.71877,-1.24452 -1.71877,-8.695344 v -9.396115 h -14.12695 -14.12677 l -0.79319,8.924008 c -0.43609,4.90837 -0.79699,11.155321 -0.80188,13.882461 -0.005,2.72643 -0.53152,4.95778 -1.17033,4.95778 -0.63874,0 -1.33854,1.63613 -1.55505,3.63547 -0.30286,2.79748 -1.13979,3.72816 -3.62885,4.03525 -3.1386,0.38757 -3.25914,0.13053 -4.03438,-8.59394 -0.43948,-4.94566 -0.80314,-12.116544 -0.80797,-15.933913 -0.005,-3.817419 -0.56868,-6.940866 -1.25295,-6.940866 -0.68421,0 -1.24402,-0.89217 -1.24402,-1.98313 0,-1.09098 -0.83977,-1.98312 -1.86607,-1.98312 -1.02648,0 -1.86614,0.5952 -1.86614,1.32229 0,0.72712 -0.83976,1.32166 -1.86615,1.32166 -1.54115,0 -1.86604,2.43628 -1.86604,13.992619 0,10.60416 -0.37651,13.85954 -1.55513,13.44492 -1.03883,-0.36525 -1.67662,-4.23613 -1.92106,-11.65861 -0.26495,-8.0413 -0.86651,-11.409582 -2.17718,-12.188786 -0.99607,-0.592497 -1.81106,-2.237423 -1.81106,-3.655743 0,-2.2679 -0.89237,-2.57835 -7.41596,-2.57835 H 4.5407653 l -0.35949,11.553703 c -0.3039497,9.772146 -0.6950894,11.621356 -2.5365391,11.995406 -1.92691991,0.39161 -2.17709991,-0.77514 -2.17709991,-10.152988 0,-5.827567 -0.55977999,-10.963881 -1.24406989,-11.413001 -0.68422,-0.44913 -1.24411,0.40783 -1.24411,1.90534 0,1.538046 -0.81149,2.72171 -1.86605,2.72171 -1.0263,0 -1.8660401,0.863014 -1.8660401,1.917478 0,1.055134 -0.79379,2.393668 -1.7640001,2.974665 -1.19647,0.717634 -2.0970302,5.063936 -2.7992002,13.511146 -0.660771,7.95074 -1.597421,12.65217 -2.590202,13.00118 -1.01906,0.35781 -1.555121,-0.85828 -1.555121,-3.52995 0,-2.74204 -0.61081,-4.07651 -1.866131,-4.07651 -1.34306,0 -1.86606,1.46027 -1.86606,5.21074 0,2.86516 -0.48066,5.52599 -1.06804,5.91149 -0.58745,0.38623 -1.38562,4.42211 -1.77358,8.96937 -0.388,4.54725 -1.30696,8.48102 -2.04205,8.7414 -0.73519,0.26041 -1.33664,2.12587 -1.33664,4.14546 0,2.019 -0.35997,6.46271 -0.80018,9.87502 -0.73889,5.72887 -1.04819,6.1726 -4.04314,5.80328 l -3.24315,-0.39976 -0.33037,-37.34984 c -0.20688,-23.38621 -0.78823,-37.349089 -1.55504,-37.349089 -0.67364,0 -1.22474,0.64456 -1.22474,1.432546 0,2.625645 -3.02919,0.40107 -3.88497,-2.852256 -0.46375,-1.76464 -0.89908,3.138346 -0.9673,10.894871 -0.0865,9.831728 -0.58415,14.265368 -1.64368,14.640728 -1.12946,0.39973 -1.64601,9.59365 -2.01186,35.80637 -0.40318,28.88781 -0.80341,35.26869 -2.21254,35.26869 -1.40067,0 -1.72037,-4.42143 -1.72037,-23.79744 z M 151.3302,129.55598 c 0.6367,0 1.15758,-5.12083 1.15758,-11.37926 0,-9.57203 0.29648,-11.25888 1.86617,-10.61837 1.57324,0.64121 1.86606,-1.09977 1.86606,-11.096479 v -11.85743 h -7.46443 c -6.67342,0 -7.4644,0.28477 -7.4644,2.68587 0,1.47719 0.78015,3.003756 1.73357,3.392673 1.27442,0.519457 1.97003,4.888783 2.62639,16.497276 0.49101,8.68463 1.39036,16.11724 1.99854,16.51702 0.60825,0.39904 1.1822,3.21949 1.27536,6.26723 0.0931,3.04701 0.41197,4.20226 0.70852,2.56615 0.29647,-1.63617 1.06003,-2.97468 1.69664,-2.97468 z M 44.801712,97.494675 c 0.81601,-12.425554 0.75419,-12.890234 -1.71663,-12.890234 -2.35647,0 -2.56322,0.78597 -2.56322,9.750552 0,11.002447 1.1307,18.708327 2.50974,17.104687 0.50803,-0.59115 1.30455,-6.87533 1.77011,-13.965005 z M 201.00637,97.164608 V 84.604441 l -10.88558,0.10416 c -5.98703,0.0541 -10.18582,0.40447 -9.3305,0.77174 0.85528,0.3666 1.55514,2.32876 1.55514,4.36056 0,2.031827 0.80646,4.405842 1.79223,5.274999 0.9857,0.869804 1.96542,3.173492 2.17709,5.12008 0.28139,2.58711 0.99539,3.42852 2.65558,3.12755 1.24894,-0.22592 3.70454,1.11261 5.45693,2.97466 5.67107,6.02712 6.57911,4.76097 6.57911,-9.173582 z m 105.74564,5.146462 c 0,-2.466727 0.55981,-4.485655 1.24401,-4.485655 0.68429,0 1.24401,-2.974625 1.24401,-6.610814 0,-6.52966 -0.0474,-6.61016 -3.90938,-6.61016 h -3.90939 l 0.79924,8.126571 c 0.43967,4.469456 0.79932,9.805298 0.79932,11.857448 0,2.77306 0.47892,3.53535 1.86606,2.96989 1.15137,-0.46939 1.86613,-2.47957 1.86613,-5.24728 z m 18.66094,-6.468786 c 0,-9.107953 -0.35368,-11.237843 -1.86606,-11.237843 -1.43013,0 -1.86622,1.68079 -1.86622,7.193177 0,3.956789 0.55997,7.561758 1.24417,8.010895 0.68421,0.449107 1.24402,2.269217 1.24402,4.044017 0,1.77548 0.28003,3.22762 0.62204,3.22762 0.34218,0 0.62205,-5.05718 0.62205,-11.237866 z M 92.772642,97.086128 c 0,-4.183986 0.506427,-5.871527 1.762441,-5.871527 0.969334,0 2.044758,0.744007 2.389925,1.653061 0.34508,0.909014 0.671597,0.2306 0.725647,-1.506951 0.054,-1.73759 1.077984,-3.95002 2.275348,-4.91585 1.879677,-1.5164 1.029947,-1.76195 -6.220287,-1.79846 l -8.397474,-0.0406 v 6.56418 c 0,5.005083 0.6648,7.301358 2.79912,9.670659 3.69406,4.0995 4.66528,3.31827 4.66528,-3.752462 z m 38.900628,0.408547 c 1.17948,-2.363215 2.49635,-6.229984 2.92651,-8.593244 l 0.78211,-4.29699 -6.06484,0.0203 c -3.33562,0.0135 -5.44075,0.45721 -4.67805,0.99157 0.76269,0.53431 1.7827,4.392326 2.26664,8.573622 0.48387,4.181309 1.27202,7.601687 1.75156,7.601687 0.47934,0 1.83658,-1.933077 3.01607,-4.296295 z m 137.17638,-7.932434 c 0.78203,-4.52288 0.613,-4.9578 -1.92482,-4.9578 -2.45245,0 -2.68997,0.48971 -2.00458,4.1313 0.42767,2.27257 0.77752,5.068685 0.77752,6.213769 0,3.679439 2.24877,-0.16432 3.15188,-5.387269 z m -291.775078,-0.33072 c 0,-2.54451 -0.55989,-4.62708 -1.24419,-4.62708 -0.68421,0 -1.24399,2.08257 -1.24399,4.62708 0,2.545147 0.55978,4.627685 1.24399,4.627685 0.6843,0 1.24419,-2.082538 1.24419,-4.627685 z m 380.684118,0 c 0,-4.51681 -0.11844,-4.62708 -4.97631,-4.62708 -2.73688,0 -4.97628,0.59522 -4.97628,1.32233 0,0.7271 0.83975,1.32161 1.86614,1.32161 1.02638,0 1.86605,0.59524 1.86605,1.32231 0,0.72712 0.83984,1.32231 1.86615,1.32231 1.02639,0 1.86614,0.892103 1.86614,1.983107 0,1.090294 0.55982,1.983098 1.2441,1.983098 0.6842,0 1.24401,-2.082538 1.24401,-4.627685 z m 33.58975,-3.30475 c 0,-0.7271 -0.5598,-1.32233 -1.24401,-1.32233 -0.68429,0 -1.24409,0.59523 -1.24409,1.32233 0,0.7271 0.5598,1.32162 1.24409,1.32162 0.68421,0 1.24401,-0.59452 1.24401,-1.32162 z M 18.763212,67.747951 c -0.49877,-7.817485 -1.3598,-14.515595 -1.91349,-14.885555 -0.55377,-0.36999 -1.24255,-2.74946 -1.53093,-5.28855 -0.28822,-2.53842 -0.6137,0.0406 -0.72321,5.7248 -0.13862,7.20064 -0.76584,10.942995 -2.06519,12.324155 -1.0264,1.09095 -1.86616,3.13025 -1.86616,4.53302 0,1.40211 -0.55972,2.54993 -1.2439994,2.54993 -0.6842897,0 -1.2440294,2.08186 -1.2440294,4.62704 0,4.62099 0.009,4.62774 5.7468488,4.62774 h 5.74691 z m 14.29425,11.56796 c 0,-1.45419 -0.5598,-2.64392 -1.24401,-2.64392 -0.68418,0 -1.24409,1.18973 -1.24409,2.64392 0,1.45421 0.55991,2.64462 1.24409,2.64462 0.68421,0 1.24401,-1.19041 1.24401,-2.64462 z m 44.78644,1.32232 c 0,-0.72713 -0.83974,-1.32232 -1.86614,-1.32232 -1.51961,0 -1.86606,-2.19483 -1.86606,-11.82093 0,-6.501265 -0.5599,-12.188195 -1.2441,-12.637985 -0.68428,-0.4491 -1.24408,-2.82519 -1.24408,-5.28042 0,-2.45456 -0.67671,-6.13806 -1.5038,-8.18477 -1.35511,-3.35344 -1.58679,-2.41397 -2.342,9.49896 -0.46104,7.27166 -0.90394,15.977895 -0.98431,19.346915 -0.10857,4.54993 -0.7061,6.33555 -2.32327,6.94156 -1.19737,0.44914 -2.87695,1.16339 -3.7322,1.5868 -1.16067,0.5749 -1.55504,-1.45692 -1.55504,-8.01162 0,-6.10628 -0.42138,-8.504685 -1.38322,-7.873635 -0.76067,0.499835 -1.8499,0.10619 -2.42042,-0.87523 -1.62461,-2.7934 -2.1031,-1.27495 -3.06018,9.708625 l -0.89298,10.24636 h 13.20886 c 7.97654,0 13.20894,-0.52419 13.20894,-1.32231 z m 42.298148,-4.46204 c 0,-7.69778 -1.28685,-14.175365 -2.63957,-13.286615 -0.60093,0.394335 -1.09264,4.846885 -1.09264,9.893945 0,7.27573 0.38662,9.17701 1.86615,9.17701 1.37436,0 1.86606,-1.52455 1.86606,-5.78434 z m 52.25085,3.24796 c 0,-3.94054 -1.34113,-6.7184 -3.24331,-6.7184 -0.95317,0 -1.73299,-0.57628 -1.73299,-1.28105 0,-0.70411 -0.83975,-0.93814 -1.86614,-0.51945 -1.21651,0.49643 -1.86614,2.55259 -1.86614,5.90811 0,5.00108 0.12372,5.14717 4.35426,5.14717 3.46305,0 4.35432,-0.51944 4.35432,-2.53638 z m 39.81007,-4.6575 c 0,-3.95611 -0.55981,-7.56114 -1.24408,-8.01026 -0.68421,-0.44978 -1.25262,-2.71563 -1.26308,-5.036265 -0.0232,-5.15732 -1.97727,-9.22907 -2.95829,-6.16511 -0.34278,1.07069 -0.79276,7.44955 -1.00007,14.176725 l -0.37683,12.22945 h 3.42118 c 3.31296,0 3.42117,-0.22795 3.42117,-7.19385 z M 230.864,62.951806 c 0,-14.15914 -0.42017,-19.37937 -1.64689,-20.46157 -3.0407,-2.6818 -4.5735,1.15592 -4.5735,11.45096 0,8.1611 -0.31087,9.666015 -1.86606,9.03157 -1.55616,-0.63443 -1.86615,0.879285 -1.86615,9.113435 v 9.87434 h 4.9763 4.9763 z m 22.39305,6.448515 c 0,-10.282865 -0.33817,-12.560205 -1.86607,-12.560205 -1.0263,0 -1.86604,0.84277 -1.86604,1.87287 0,1.03011 -0.61489,2.09135 -1.36636,2.35715 -0.75164,0.26649 -1.66564,3.304755 -2.03116,6.750855 -0.36561,3.44747 -1.15036,6.58652 -1.74379,6.97611 -0.59345,0.38958 -1.07901,2.16099 -1.07901,3.93579 0,2.88405 0.52967,3.22764 4.97622,3.22764 h 4.97621 z m 26.12553,9.33257 c 0,-1.7748 -0.5599,-3.59491 -1.24411,-4.044 -0.72583,-0.47687 -1.24408,0.86776 -1.24408,3.22693 0,2.22459 0.55988,4.04471 1.24408,4.04471 0.68421,0 1.24411,-1.45283 1.24411,-3.22764 z m 4.64008,-9.63357 c -0.26931,-2.74334 -0.49416,-0.82312 -0.4997,4.26723 -0.005,5.09037 0.21481,7.3346 0.48957,4.98759 0.27483,-2.34702 0.27942,-6.51211 0.01,-9.25482 z m 11.12235,-9.714025 c -0.44112,-12.41613 -1.2051,-23.26782 -1.69774,-24.11464 -1.43923,-2.47484 -2.60789,4.03659 -2.74412,15.28936 -0.0709,5.86211 -0.65636,10.24635 -1.36815,10.24635 -0.72566,0 -1.24401,4.407235 -1.24401,10.577085 v 10.57708 h 3.92804 3.92803 z m 41.08262,17.642465 c -0.31547,-1.28646 -0.59422,-0.55393 -0.61968,1.62732 -0.0252,2.1813 0.23278,3.23377 0.57352,2.3389 0.34082,-0.8955 0.3616,-2.68044 0.0462,-3.96622 z"
       id="path4"
       style="fill:#e6e6e6;stroke-width:0.00726635" />
    <path
       style="fill:#000000;stroke-width:0.45275"
       d="m 136.97531,127.0947 c -4.89543,-1.57435 -7.73316,-5.90545 -7.73316,-11.80278 0,-5.28439 2.05088,-9.01811 6.16241,-11.21894 2.58826,-1.38544 8.28581,-1.37772 10.90882,0.0149 3.73564,1.98316 6.06925,6.15645 6.06925,10.85381 v 1.95519 h -9.43227 c -5.18773,0 -9.55142,0.11917 -9.69707,0.26482 -0.34148,0.34147 0.57974,2.86266 1.52876,4.18382 1.05231,1.46501 3.91172,2.79534 6.00828,2.79534 2.55727,0 5.40013,-1.50676 6.42163,-3.40356 0.76574,-1.4219 1.03898,-1.57668 2.78351,-1.57668 1.06392,0 1.9344,0.21387 1.9344,0.47524 0,0.83452 -1.42231,3.33075 -2.65499,4.65965 -2.7443,2.95852 -8.04976,4.166 -12.29957,2.79928 z m 11.0074,-14.93773 c -0.20367,-2.77037 -3.04807,-5.24267 -6.40265,-5.56501 -2.6872,-0.2582 -5.86992,1.04969 -7.09159,2.91416 -0.92205,1.40725 -1.59472,3.59708 -1.22003,3.97177 0.14922,0.1492 3.54317,0.21546 7.54218,0.14727 l 7.27089,-0.124 z m -43.13869,-0.24042 V 96.523061 l 4.41431,0.009 c 8.94147,0.0185 12.69678,1.272624 14.37032,4.799349 2.35439,4.96153 0.60581,10.33496 -4.05157,12.45051 -1.3678,0.6213 -2.94413,0.83364 -6.24402,0.84107 l -4.41429,0.01 v 6.33848 6.33848 h -2.03739 -2.03736 z m 14.31479,-2.33662 c 1.6441,-1.64535 1.96399,-4.97835 0.67467,-7.03016 -1.11244,-1.77036 -3.10892,-2.39874 -7.6323,-2.40221 l -3.28241,-0.002 v 5.47544 5.47543 l 4.5181,-0.15562 c 4.1865,-0.14418 4.60644,-0.24404 5.72194,-1.36036 z m 39.10955,5.73223 v -11.99787 h 2.03736 c 1.87443,0 2.03736,0.0911 2.03736,1.1383 v 1.13831 l 1.82214,-1.20584 c 1.12744,-0.7461 2.68094,-1.28835 4.07473,-1.42227 l 2.25262,-0.21646 v 2.03738 2.03738 l -2.29746,0.22075 c -2.7549,0.26471 -4.52616,1.46301 -5.26052,3.55885 -0.33103,0.94472 -0.55028,4.48026 -0.56595,9.12575 l -0.0257,7.58354 h -2.03737 -2.03736 z m 17.20445,0 v -11.99787 h 2.03736 2.03736 V 115.31216 127.31 h -2.03736 -2.03736 z m 11.31872,-4.07473 v -16.0726 h 2.03737 2.03736 v 16.0726 16.07257 h -2.03736 -2.03737 z m 11.3187,0 v -16.0726 h 2.03737 2.03736 v 16.0726 16.07257 h -2.03736 -2.03737 z m 11.77147,4.07473 v -11.99787 h 1.811 1.81099 V 115.31216 127.31 h -1.81099 -1.811 z M 175.47165,99.011766 c -0.31064,-0.374277 -0.56477,-1.188591 -0.56477,-1.809578 0,-1.630881 0.9119,-2.490108 2.64279,-2.490108 1.5959,0 2.45063,0.925787 2.45063,2.654375 0,2.013621 -3.24465,3.192455 -4.52865,1.645311 z m 34.10786,-0.503517 c -0.69485,-1.060484 -0.70628,-1.308501 -0.10941,-2.376915 1.17811,-2.108638 4.93905,-1.488871 4.93905,0.813904 0,2.617935 -3.41444,3.722942 -4.82969,1.563011 z M 95.674057,70.705355 c -4.730473,-1.19202 -8.120925,-4.02628 -10.252333,-8.570483 -1.009514,-2.152343 -1.177634,-3.124795 -1.177634,-6.811888 0,-3.787394 0.1505,-4.607376 1.259234,-6.865325 1.532881,-3.121471 4.141806,-5.812738 7.009781,-7.231005 1.813338,-0.896721 2.842602,-1.061108 6.671561,-1.065526 3.805004,-0.0044 4.861814,0.159492 6.622494,1.026955 2.75351,1.356625 5.12252,3.705639 6.52158,6.466504 l 1.13276,2.235414 h -2.18422 c -2.0706,0 -2.25809,-0.104838 -3.60491,-2.015567 -3.81261,-5.408994 -12.009823,-5.751984 -16.558389,-0.692845 -2.443485,2.717797 -3.221532,5.235751 -2.920012,9.450057 0.392847,5.490674 3.633519,9.405389 8.647599,10.446319 5.931572,1.2314 11.557142,-2.3077 12.747892,-8.019804 l 0.30673,-1.471434 h -6.14807 -6.148065 V 55.775733 53.96474 h 8.200555 8.20057 l -0.18158,3.056052 c -0.45457,7.647683 -6.07031,13.406323 -13.57184,13.917143 -1.580711,0.10763 -3.638829,0.003 -4.573633,-0.23259 z m 31.002323,-0.17441 c -2.78965,-0.91024 -4.68796,-2.53065 -6.21626,-5.30623 -1.20156,-2.182187 -1.3395,-2.848995 -1.34585,-6.506113 -0.005,-3.57248 0.14537,-4.364259 1.23058,-6.423593 1.35356,-2.568758 3.48117,-4.440397 6.117,-5.381033 3.5942,-1.282646 8.60402,-0.432239 11.00504,1.868084 1.32717,1.271502 1.78602,1.071489 1.78602,-0.778509 0,-1.194753 0.12431,-1.282787 1.811,-1.282787 h 1.81099 v 11.997838 11.997833 h -1.81099 c -1.76787,0 -1.811,-0.0377 -1.811,-1.58462 0,-1.71307 -0.45189,-1.99757 -1.3857,-0.8724 -1.89852,2.28758 -7.59681,3.44423 -11.19083,2.27153 z m 6.65971,-3.42758 c 1.77673,-0.50956 3.87163,-2.34823 4.88298,-4.285746 0.39403,-0.754853 0.70767,-2.542749 0.72249,-4.118346 0.0639,-6.786018 -6.14381,-10.827022 -11.93096,-7.766707 -2.65951,1.406389 -4.05662,4.039486 -4.05662,7.645413 0,3.126462 0.75143,5.121048 2.54753,6.762176 2.19606,2.00656 4.87997,2.61059 7.83458,1.76321 z m 40.76459,3.39776 c -4.89543,-1.57434 -7.73315,-5.90544 -7.73315,-11.802769 0,-5.28439 2.05089,-9.018101 6.1624,-11.21891 2.58827,-1.385442 8.28581,-1.377717 10.90885,0.0149 3.73561,1.98316 6.06923,6.156437 6.06923,10.853791 v 1.95519 h -9.43225 c -5.18776,0 -9.55145,0.119169 -9.6971,0.264821 -0.34148,0.341475 0.57977,2.86266 1.52876,4.183817 1.05232,1.46501 3.91172,2.79534 6.00829,2.79534 2.55729,0 5.40013,-1.50676 6.42165,-3.40356 0.76574,-1.421901 1.03898,-1.576675 2.78348,-1.576675 1.06395,0 1.93443,0.213863 1.93443,0.475232 0,0.834522 -1.42231,3.330753 -2.65499,4.659653 -2.74432,2.95852 -8.04976,4.166 -12.2996,2.79928 z m 11.0074,-14.937724 c -0.20367,-2.770363 -3.04807,-5.242663 -6.40264,-5.564994 -2.68718,-0.258205 -5.86993,1.049687 -7.09157,2.91415 -0.92208,1.407247 -1.59472,3.597076 -1.22003,3.971772 0.14922,0.149194 3.54317,0.215456 7.54216,0.147267 l 7.27091,-0.123998 z m -34.53644,3.155201 V 46.720764 h 2.03737 c 1.90306,0 2.03736,0.07923 2.03736,1.202042 0,1.125503 0.0514,1.155432 0.80889,0.470016 1.17498,-1.063347 3.93006,-2.124807 5.51504,-2.124807 1.32519,0 1.37278,0.07065 1.37278,2.037369 0,1.966708 -0.0475,2.03737 -1.37278,2.03737 -1.96088,0 -4.20284,1.047578 -5.34242,2.496308 -0.92593,1.177127 -0.98151,1.718688 -0.98151,9.562585 v 8.314788 h -2.03736 -2.03737 z m 48.58618,11.114873 c -2.41927,-1.47513 -2.60424,-2.22175 -2.78194,-11.228061 l -0.16309,-8.26266 h -1.54142 c -1.49653,0 -1.54145,-0.05278 -1.54145,-1.810997 0,-1.767873 0.0377,-1.810993 1.58462,-1.810993 h 1.58462 v -2.942866 -2.942866 h 2.03737 2.03736 v 2.942866 2.942866 h 3.16925 3.16924 v 1.810993 1.810997 h -3.16924 -3.16925 v 7.664385 c 0,8.987766 0.0426,9.087316 3.88072,9.087316 h 2.45777 v 1.81099 1.81099 l -3.05606,-0.002 c -2.2269,-10e-4 -3.44742,-0.24034 -4.49858,-0.88127 z M 212.14544,54.643863 V 38.57129 h 2.03736 2.03739 v 5.182425 5.182423 l 2.53608,-1.33406 c 5.81938,-3.061173 12.21856,-0.819102 14.15309,4.95879 0.31056,0.927597 0.51528,4.839641 0.51528,9.847282 v 8.308285 h -1.77504 -1.77503 l -0.14922,-8.284161 c -0.16463,-9.151362 -0.36761,-9.885203 -3.22978,-11.683591 -1.85268,-1.164079 -5.65771,-0.984282 -7.46454,0.352716 -2.29538,1.698514 -2.57278,2.876614 -2.72629,11.578753 l -0.14177,8.036283 h -2.00878 -2.0088 z"
       id="path3892" />
  </g>
</svg>
