<?xml version="1.0" encoding="UTF-8" standalone="no"?>
<svg
   preserveAspectRatio="none"
   width="100%"
   height="100%"
   style="vertical-align: bottom;"
   viewBox="0 0 7314866.2 264.58333"
   version="1.1"
   id="svg6"
   sodipodi:docname="wave.svg"
   inkscape:version="1.1.1 (3bf5ae0d25, 2021-09-20)"
   xmlns:inkscape="http://www.inkscape.org/namespaces/inkscape"
   xmlns:sodipodi="http://sodipodi.sourceforge.net/DTD/sodipodi-0.dtd"
   xmlns="http://www.w3.org/2000/svg"
   xmlns:svg="http://www.w3.org/2000/svg">
  <defs
     id="defs10" />
  <sodipodi:namedview
     id="namedview8"
     pagecolor="#ffffff"
     bordercolor="#666666"
     borderopacity="1.0"
     inkscape:pageshadow="2"
     inkscape:pageopacity="0.0"
     inkscape:pagecheckerboard="0"
     showgrid="false"
     inkscape:zoom="0.01"
     inkscape:cx="91350"
     inkscape:cy="94900"
     inkscape:window-width="1920"
     inkscape:window-height="974"
     inkscape:window-x="-11"
     inkscape:window-y="-11"
     inkscape:window-maximized="1"
     inkscape:current-layer="svg6" />
  <rect
     width="99.202988%"
     height="5145.5498%"
     x="58200.52"
     y="-35335.914"
     id="rect2"
     style="stroke-width:7.1446" />
  <path
     d="m 17031.232,129358.33 c 0,-6837.93 -93.242,-8027.24 -629.424,-8027.24 -525.784,0 -629.464,-913.72 -629.464,-5548.01 0,-3217.74 -176.256,-5663.9 -419.617,-5823.82 -230.802,-151.49 -446.427,-1016.16 -479.19,-1921.43 l -59.535,-1646.06 -255.187,1748.95 c -428.071,2933.93 -1304.247,2532.85 -1304.247,-597.05 v -2712.86 h -1853.373 c -1089.431,0 -1941.1078,-229.74 -2066.2063,-557.36 -166.0864,-435.07 -299.6797,-425.94 -608.181,41.07 -330.7466,500.77 -543.7332,500.77 -1303.6501,0 -615.9804,-405.87 -1005.4532,-448.07 -1210.215,-131.18 -386.3923,597.96 -2098.1221,720.7 -2416.58,173.16 -393.0371,-675.99 -1452.2101,-477.74 -1452.2101,271.49 0,555.3 -305.7067,627.85 -1573.61011,373.01 -865.48512,-173.84 -2171.77449,-333.54 -2902.85779,-354.76 -731.1028,-20.53 -1470.6986,-188.9 -1643.5641,-372.79 -490.9014,-522.45 -2692.2032,-392.4 -2692.2032,159.02 0,271.49 -271.058,383.28 -602.3447,248.22 -331.285,-135.29 -673.0685,-20.53 -759.511,255.29 -100.311,319.86 -451.8216,365.95 -971.2867,127.76 -447.7559,-205.55 -1050.1369,-333.09 -1338.6259,-283.81 -288.509,49.51 -524.551,-119.55 -524.551,-375.52 0,-693.33 -1080.398,-562.38 -1678.524,203.5 -717.407,918.51 -1258.888,838.43 -1258.888,-186.62 0,-2214.82 143.917,-2266.15 6339.3564,-2266.15 3606.8801,0 5829.947,169.96 5829.947,445.79 0,245.48 472.0826,446.02 1049.0787,446.02 576.97834,0 1049.06097,-200.54 1049.06097,-446.02 0,-698.8 11205.45293,-589.75 11471.75293,111.56 116.413,306.63 226.566,-610.74 244.786,-2038.69 21.361,-1672.98 256.921,-2833.776 662.591,-3264.968 369.982,-393.09 629.445,-1482.936 629.445,-2643.73 0,-1458.296 164.679,-1975.043 629.444,-1975.043 466.247,0 629.443,520.397 629.443,2006.753 0,1103.762 178.49,2006.754 396.639,2006.754 218.148,0 467.364,953.414 553.808,2118.317 86.443,1165.127 191.202,-741.24 232.804,-4236.404 63.273,-5315.751 178.568,-6354.946 705.082,-6354.946 524.549,0 629.444,891.813 629.444,5351.342 0,4459.527 104.914,5351.57 629.444,5351.57 483.216,0 629.464,-569.904 629.464,-2452.774 0,-1882.872 146.227,-2452.775 629.443,-2452.775 466.248,0 629.444,-520.169 629.444,-2006.754 0,-1103.761 188.833,-2006.753 419.636,-2006.753 236.697,0 419.616,-1263.462 419.616,-2898.796 0,-2178.09 145.074,-2898.569 583.604,-2898.569 467.942,0 644.41,1723.4 890.428,8695.932 244.594,6933.065 424.047,8696.164 885.112,8696.164 427.033,0 578.289,-699.72 578.289,-2675.675 0,-2081.128 139.871,-2675.671 629.443,-2675.671 503.555,0 629.444,668.917 629.444,3344.588 0,2675.668 125.89,3344.588 629.443,3344.588 533.276,0 629.445,-1090.07 629.445,-7135.198 0,-4459.527 157.36,-7135.199 419.636,-7135.199 230.803,0 419.636,-401.305 419.636,-892.043 0,-495.3 279.746,-891.814 629.425,-891.814 530.943,0 643.312,1169.009 717.967,7469.658 63.31,5344.043 127.199,6169.006 224.484,2898.796 108.651,-3651.67 259.656,-4571.091 750.769,-4571.091 448.854,0 614.768,541.614 614.768,2006.753 0,1103.762 188.832,2006.754 419.635,2006.754 233.114,0 419.616,1189.314 419.616,2675.901 0,2081.123 139.872,2675.673 629.443,2675.673 346.215,0 629.464,-301.15 629.464,-668.92 0,-368 283.25,-668.92 629.443,-668.92 502.94,0 629.446,-665.04 629.446,-3308.312 0,-1819.447 114.621,-3625.434 254.705,-4013.509 323.659,-896.376 1423.818,-924.438 1423.818,-36.501 0,416.133 396.311,668.918 1049.08,668.918 h 1049.062 v -6020.489 c 0,-5054.072 101.021,-6020.26 629.462,-6020.26 346.195,0 629.444,300.922 629.444,668.917 0,367.996 257.574,668.919 572.413,668.919 657.064,0 1106.11,2740.92 1106.11,6751.461 0,1445.064 187.602,2613.615 419.618,2613.615 230.802,0 419.635,1103.761 419.635,2452.775 0,1829.714 152.431,2452.548 600.265,2452.548 330.149,0 682.102,451.724 782.104,1003.376 l 181.862,1003.604 57.146,-1003.604 c 31.434,-551.652 245.982,-1003.376 476.783,-1003.376 233.134,0 419.636,-1189.087 419.636,-2675.673 0,-1957.702 153.026,-2675.67 570.294,-2675.67 419.251,0 630.292,1022.085 796.84,3859.052 170.015,2896.287 394.212,3958.979 898.422,4258.759 369.519,219.71 671.856,604.59 671.856,855.32 0,831.12 1183.463,1729.78 2277.997,1729.78 1062.139,0 1079.051,-52.02 1079.051,-3312.876 0,-2350.11 182.919,-3507.028 629.443,-3981.566 466.999,-496.441 629.444,-1713.132 629.444,-4714.593 0,-3298.504 116.202,-4045.219 629.443,-4045.219 346.196,0 629.446,-200.766 629.446,-446.022 0,-245.254 263.218,-446.021 584.913,-446.021 434.852,0 661.955,1034.862 885.362,4034.496 440.129,5909.611 1226.204,5063.197 1375.359,-1480.881 108.611,-4766.382 186.213,-5200.996 975.773,-5467.241 1090.53,-367.996 1195.674,-238.409 1506.813,1855.039 141.222,950.219 406.848,1833.365 590.269,1962.95 183.419,129.358 465.571,1634.423 627.016,3344.589 161.406,1710.166 457.522,3223.673 657.989,3363.525 200.447,139.625 485.932,1927.815 634.394,3973.582 353.668,4874.068 784.61,5360.238 4751.05,5360.238 h 2937.412 v -3790.608 c 0,-3918.143 278.051,-4450.859 1593.546,-3052.793 469.156,498.722 746.953,1727.961 856.644,3790.609 118.186,2223.032 320.54,3052.792 744.393,3052.792 453.265,0 582.101,-888.39 582.101,-4013.734 0,-2378.399 170.959,-4013.507 419.636,-4013.507 230.783,0 422.198,-451.496 425.355,-1003.375 9.747,-1702.638 484.218,-3010.131 1092.282,-3010.131 361.565,0 580.503,490.51 580.503,1300.648 0,715.459 178.029,1367.494 395.618,1449.399 217.571,81.674 527.824,2205.466 689.422,4719.611 l 293.844,4571.089 h 2247.969 2247.99 v -2452.77 c 0,-1882.875 146.228,-2452.778 629.444,-2452.778 483.216,0 629.443,569.903 629.443,2452.778 v 2452.77 h 2517.797 2517.776 v -1337.83 c 0,-841.85 215.258,-1337.84 580.502,-1337.84 779.351,0 1085.406,-1405.822 1092.302,-5017.112 4.526,-2375.661 138.39,-3010.129 635.163,-3010.129 346.195,0 629.446,-200.767 629.446,-446.022 0,-245.254 283.249,-445.792 629.443,-445.792 419.635,0 629.444,445.792 629.444,1337.834 0,891.816 209.827,1337.837 629.463,1337.837 391.659,0 629.451,421.154 629.451,1114.938 0,613.023 172.706,1114.711 383.807,1114.711 211.119,0 516.56,1505.066 678.744,3344.817 l 294.92,3344.588 h 4098.08 c 4935.208,0 4601.768,604.81 4609.838,-8361.7 3.35,-3935.253 165.52,-6354.717 425.36,-6354.717 230.81,0 419.65,-301.15 419.65,-668.92 0,-367.996 283.25,-668.917 629.43,-668.917 419.65,0 629.46,-446.022 629.46,-1338.065 0,-827.248 216.66,-1337.834 567.79,-1337.834 441,0 619.16,1457.382 797.64,6524.23 126.37,3588.247 409.03,6648.568 628.15,6800.741 219.1,152.172 506.18,577.661 637.98,945.656 131.79,367.768 254.51,-785.956 272.73,-2564.337 18.2,-1778.153 198.59,-3233.028 400.77,-3233.028 202.24,0 456.93,-1143.912 566.03,-2541.75 109.1,-1398.066 415.72,-2618.864 681.41,-2712.859 314.18,-111.333 485.07,-1522.403 488.79,-4036.093 6.6,-4441.734 272.62,-5871.739 1092.3,-5871.739 406.63,0 580.5,589.98 580.5,1969.566 0,1083.227 184.55,2036.64 410.07,2118.317 225.55,81.675 536.67,1904.544 691.37,4050.694 154.68,2146.148 442.26,3902.172 639.01,3902.172 196.75,0 357.71,1776.556 357.71,3948.03 0,5811.51 425.52,9430.553 1108.84,9430.553 395.42,0 569.68,-613.93 569.68,-2006.75 0,-1103.761 188.84,-2006.984 419.64,-2006.984 246.29,0 419.63,-1539.97 419.63,-3728.326 0,-5061.829 394.36,-7866.4 1106.11,-7866.4 398.66,0 572.4,-609.145 572.4,-2006.754 0,-1486.358 163.19,-2006.753 629.46,-2006.753 419.62,0 629.44,446.02 629.44,1337.835 0,891.813 209.81,1337.835 629.45,1337.835 483.22,0 629.44,569.904 629.44,2452.776 0,1349.015 188.84,2452.774 419.64,2452.774 254.55,0 421.89,1973.673 425.35,5016.884 3.35,2759.4 119.58,5468.613 258.76,6020.493 284,1126.11 994.41,1364.98 994.41,334.45 0,-367.99 283.26,-668.91 629.43,-668.91 346.21,0 629.47,300.92 629.47,668.91 0,371.65 373,668.92 839.27,668.92 605.43,0 839.24,-297.27 839.24,-1067.26 0,-587.01 283.26,-1182.69 629.44,-1323.91 346.2,-141 629.46,-563.98 629.46,-939.501 0,-375.752 188.82,-683.063 419.62,-683.063 230.8,0 419.65,-574.008 419.65,-1275.551 0,-2770.352 540.05,-5413.626 1106.09,-5413.626 360.7,0 572.42,-512.64 572.42,-1386.203 0,-1240.646 105.78,-1357.912 1007.42,-1117.449 1001.16,266.928 1008.32,243.202 1153.98,-3816.845 98.82,-2754.61 317.41,-4145.831 671.09,-4271.082 288.52,-101.98 524.57,-770.899 524.57,-1486.359 0,-1767.429 1079.46,-1696.705 1416.24,92.855 144.26,766.565 262.28,2254.975 262.28,3307.631 0,1052.656 198.39,1984.168 440.84,2069.949 269.55,95.592 539.28,2969.064 694.19,7395.512 139.36,3981.567 413.05,7239.232 608.25,7239.232 195.16,0 354.88,601.84 354.88,1337.84 0,1189.08 139.87,1337.83 1258.89,1337.83 1119,0 1258.87,-148.75 1258.87,-1337.83 0,-892.05 209.82,-1337.84 629.45,-1337.84 517.54,0 629.44,-792.799 629.44,-4459.528 0,-3458.889 127.87,-4459.527 569.67,-4459.527 624.92,0 1108.87,3531.894 1108.87,8092.49 0,2022.955 141.64,2610.195 629.46,2610.195 346.16,0 629.41,200.77 629.41,446.02 0,245.26 566.53,446.02 1258.92,446.02 h 1258.89 v -4491.467 c 0,-3397.746 153.27,-4654.135 629.43,-5160.386 346.21,-367.768 629.47,-1235.172 629.47,-1927.131 0,-1148.704 619.6,-1799.599 1712.83,-1799.599 211.93,0 385.31,608.231 385.31,1351.753 0,745.802 262.73,1458.981 586.04,1590.848 322.32,131.41 711.55,1128.627 864.97,2215.732 153.43,1087.334 456.2,1976.866 672.87,1976.866 216.64,0 395.98,652.263 398.53,1449.397 2.5,797.137 121.67,2201.817 264.71,3121.697 248.35,1596.55 333.55,1672.29 1883.73,1672.29 1163.47,0 1623.61,-189.59 1623.61,-668.92 0,-367.99 283.25,-668.91 629.45,-668.91 503.56,0 629.46,-668.92 629.46,-3344.821 0,-2622.057 131.24,-3344.59 607.51,-3344.59 433.55,0 651.65,670.516 761.63,2341.212 144.39,2193.376 159.04,2151.171 231.75,-668.917 60.41,-2341.669 217.4,-3010.129 707.09,-3010.129 439.61,0 629.44,470.66 629.44,1560.959 0,858.277 188.83,1560.732 419.63,1560.732 230.8,0 419.61,485.263 419.61,1078.436 0,1365.441 399.2,2489.278 884.18,2489.278 206.09,0 374.72,-301.15 374.72,-668.918 0,-367.996 283.25,-669.146 629.45,-669.146 346.21,0 629.45,-200.538 629.45,-445.792 0,-245.256 268.2,-446.022 596.04,-446.022 423.89,0 680.41,-837.288 888.14,-2898.568 203.69,-2021.354 467.86,-2898.795 872.67,-2898.795 462.08,0 580.57,1092.125 580.57,5351.343 0,3270.438 163.19,5351.568 419.63,5351.568 230.8,0 419.62,-878.12 419.62,-1951.08 0,-2839.028 441.54,-4738.325 1101.55,-4738.325 379.63,0 576.97,533.858 576.97,1560.96 0,2337.795 691.33,1879.906 1009.48,-668.917 190.58,-1526.967 472.19,-2229.879 893.32,-2229.879 376.24,0 615.01,-432.789 615.01,-1114.939 0,-693.556 237.79,-1114.711 629.42,-1114.711 419.65,0 629.45,-446.02 629.45,-1337.834 0,-892.043 209.82,-1338.065 629.45,-1338.065 503.56,0 629.44,669.146 629.44,3344.818 0,2675.67 125.91,3344.588 629.47,3344.588 454.58,0 629.45,495.529 629.45,1783.858 0,981.019 188.83,1783.856 419.6,1783.856 230.8,0 419.64,601.84 419.64,1337.84 0,1189.08 139.87,1337.83 1258.89,1337.83 h 1258.91 l 5.71,-3679.274 c 6.53,-4191.458 280.72,-5685.801 1043.32,-5685.801 292.38,0 645.43,451.495 784.6,1003.375 427.8,1696.479 301.08,9253.52 -155.13,9253.52 -242.45,0 -419.64,1412.21 -419.64,3344.59 0,2675.9 -125.89,3344.81 -629.43,3344.81 -505.73,0 -629.47,683.75 -629.47,3478.28 0,3432.88 -380.86,4548.73 -1552.62,4548.73 -366.81,0 -545.51,-657.5 -545.51,-2006.75 0,-1709.48 -124.36,-2006.75 -839.29,-2006.75 -714.92,0 -839.25,-297.27 -839.25,-2006.75 0,-1103.76 -188.82,-2006.76 -419.63,-2006.76 -230.8,0 -422.53,-551.88 -426.05,-1226.5 -3.35,-674.39 -172.21,-1504.61 -374.82,-1844.54 -298.69,-501.23 -513.57,-438.04 -1135.89,334.46 -1007.48,1250.45 -1420.27,1203.46 -1420.27,-162.21 0,-693.79 -237.79,-1114.94 -629.44,-1114.94 -495.16,0 -629.45,620.55 -629.45,2908.38 0,2669.28 -86.17,2949.89 -1049.09,3416.22 -576.98,279.25 -1049.08,776.83 -1049.08,1105.36 0,328.52 -377.66,597.28 -839.24,597.28 -746.01,0 -839.27,-297.27 -839.27,-2675.67 0,-1486.59 -186.5,-2675.68 -419.61,-2675.68 -230.81,0 -419.64,300.93 -419.64,668.93 0,1161.93 -1155.06,723.21 -1456.51,-553.03 -374.08,-1584 -1087.86,-2028.42 -1745.94,-1087.33 -438.94,627.86 -662.31,657.97 -1387.96,187.08 -749.2,-486.18 -864.81,-453.32 -864.81,245.25 0,1647.66 -1867.09,2566.16 -2228.52,1096.46 -105.54,-429.14 -213.8,-128.22 -240.57,668.92 -32.55,968.01 -257.73,1449.4 -678.14,1449.4 -419.62,0 -629.45,445.79 -629.45,1337.84 0,735.76 -166.74,1337.83 -370.54,1337.83 -203.82,0 -534.27,1338.75 -734.38,2975 -449.33,3674.71 -1412.84,4418 -1412.84,1089.61 0,-1819.22 -121.14,-2203.41 -629.47,-1996.03 -460.31,187.53 -629.42,-55.89 -629.42,-905.96 0,-736.22 -230.94,-1162.62 -629.47,-1162.62 -519.54,0 -629.45,-817.66 -629.45,-4682.42 0,-2575.52 -173.09,-4682.66 -384.65,-4682.66 -211.57,0 -458.77,236.36 -549.31,524.96 -246.25,785.04 -1164.2,0 -1164.2,-997.22 0,-476.13 -255.94,-865.57 -568.75,-865.57 -577.02,0 -1100.23,3748.86 -1106.79,7929.59 -2.1,1283.54 -209.26,1993.53 -632.4,2166 -388.38,158.56 -629.47,836.37 -629.47,1769.94 0,832.04 -188.82,1513.05 -419.61,1513.05 -239.8,0 -419.64,1337.83 -419.64,3121.7 0,1717 -182.18,3121.69 -404.87,3121.69 -878.19,0 -1273.65,-1921.2 -1273.65,-6187.72 0,-2454.38 -167.44,-4572.46 -372.07,-4706.84 -204.64,-134.38 -496.45,-949.08 -648.46,-1810.09 -152.02,-861.24 -446.34,-1565.76 -654.04,-1565.76 -207.69,0 -448.35,-953.41 -534.77,-2118.31 l -157.19,-2118.31 -75.63,2314.97 c -41.59,1273.05 -264.46,2438.86 -495.26,2590.58 -230.79,151.48 -419.63,2031.39 -419.63,4177.54 0,2740.46 -183.41,4159.74 -616.11,4767.75 -373.46,524.73 -621.35,1890.17 -629.46,3466.88 -9.59,1877.16 -159.4,2550.41 -537.87,2417.86 -288.49,-100.84 -584.88,-619.41 -658.61,-1151.9 -73.77,-532.71 -404.24,-968.47 -734.37,-968.47 -491.78,0 -600.26,-1119.73 -600.26,-6195.7 0,-5095.82 -111.73,-6241.33 -629.45,-6452.37 -470.6,-191.86 -629.44,-991.73 -629.44,-3169.37 v -2912.71 l -3042.33,4.56 c -2965.16,4.56 -3061.18,37.87 -3786.34,1391.9 -427.36,797.82 -857.19,2836.97 -1009.95,4791.03 -201.26,2574.37 -479.71,3644.37 -1144.35,4397.92 -1237.21,1402.64 -1507.8,1263.92 -1507.8,-772.72 0,-1584.23 -112.33,-1783.63 -1004.55,-1783.63 -963.05,0 -1016.85,-165.86 -1303.43,-4013.73 l -298.91,-4013.51 h -2218.52 c -2679.67,0 -2727.95,91.94 -2727.95,5196.89 0,2761.91 -169.36,3965.83 -626.25,4451.31 -1002.72,1065.66 -1471.58,294.77 -1476.54,-2427.67 -6.62,-3641.86 -425.42,-5882.69 -1099.34,-5882.69 -316.02,0 -574.55,-300.93 -574.55,-668.92 0,-479.33 -460.16,-668.92 -1623.64,-668.92 -1550.17,0 -1635.37,75.74 -1883.7,1672.3 -143.05,919.87 -262.18,2424.94 -264.73,3344.58 -4.19,1485.22 -121.99,1672.3 -1053.69,1672.3 -985.07,0 -1049.44,-142.82 -1054.8,-2341.21 -8.78,-3589.85 -309.03,-4347.97 -1721.75,-4347.97 h -1209.94 v 5314.38 c 0,3611.52 -154.77,5368.92 -483.08,5485.27 -265.68,94.22 -572.31,1315.02 -681.41,2712.86 -180.98,2319.53 -285.56,2541.75 -1195.46,2541.75 -783.817,0 -997.108,238.41 -997.108,1114.94 0,806.03 -225.489,1114.93 -813.918,1114.93 -630.938,0 -851.696,-376.2 -981.943,-1672.29 -147.407,-1467.19 -208.541,-1547.04 -498.396,-650.89 -741.572,2293.3 -1276.229,598.18 -1482.422,-4700 -115.402,-2965.18 -304.223,-5457.66 -419.625,-5538.87 -115.401,-81.22 -587.493,-369.83 -1049.081,-641.31 -461.605,-271.72 -873.904,-773.41 -916.22,-1114.94 -500.761,-4041.34 -453.979,-3965.83 -2459.832,-3965.83 h -1869.341 v 2243.8 c 0,1583.09 -185.329,2319.31 -629.444,2500.45 -474.53,193.47 -629.446,1006.57 -629.446,3304.21 0,1676.4 -188.832,3171.66 -419.635,3323.37 -230.784,151.49 -419.616,941.55 -419.616,1755.57 0,813.79 -283.25,1729.56 -629.443,2035.04 -396.909,349.97 -629.464,1333.27 -629.464,2661.07 0,2050.79 -841.256,3582.32 -1967.822,3582.32 -444.887,0 -959.46,-3385.43 -965.931,-6354.95 -2.099,-919.65 -192.492,-1672.29 -423.294,-1672.29 -232.152,0 -419.618,-1171.07 -419.618,-2621.15 0,-1785.91 -200.601,-2797.96 -629.443,-3176.21 -346.196,-305.26 -629.445,-1010.91 -629.445,-1567.81 0,-556.9 -283.25,-1127.95 -629.463,-1269.17 -530.866,-216.51 -629.444,374.16 -629.444,3772.13 0,3875.26 -415.879,5754.02 -1273.643,5754.02 -222.673,0 -404.88,-969.16 -404.88,-2153.68 0,-1946.52 -90.758,-2150.26 -944.168,-2118.09 -897.362,33.31 -959.978,-183.65 -1263.356,-4384.23 -175.543,-2430.65 -529.133,-4688.36 -785.726,-5016.89 -977.623,-1252.05 -1538.246,-615.99 -1832.495,2078.16 -202.065,1850.25 -473.72,2675.68 -880.471,2675.68 -468.732,0 -588.244,991.51 -588.244,4879.3 0,2771.73 -181.246,4998.19 -419.617,5154.69 -230.803,151.72 -419.655,665.27 -419.655,1141.17 0,476.14 -283.249,865.58 -629.426,865.58 -534.622,0 -640.075,-1259.58 -699.997,-8361.47 -38.809,-4598.92 -144.609,-7609.05 -235.154,-6689.41 -95.842,973.95 -389.762,1672.3 -703.676,1672.3 -876.193,0 -1928.048,1539.74 -1928.048,2822.36 0,655.24 -180.281,1191.37 -400.625,1191.37 -220.324,0 -527.419,718.2 -682.431,1596.32 -154.991,878.13 -541.209,1702.19 -858.261,1831.55 -317.053,129.35 -576.458,703.59 -576.458,1276 0,572.41 -190.298,1165.82 -422.852,1318.45 -798.575,524.5 -1675.25,-1030.75 -1679.93,-2980.48 -7.802,-3250.13 -444.328,-5231.79 -1094.131,-4966.69 -459.757,187.31 -579.771,-419.78 -579.771,-2933.01 v -3169.38 h -4765.072 -4765.074 l -267.533,3010.13 c -147.114,1655.64 -268.843,3762.78 -270.479,4682.66 -1.733,919.64 -179.28,1672.29 -394.75,1672.29 -215.471,0 -451.513,551.88 -524.53,1226.27 -102.159,943.6 -384.466,1257.53 -1224.047,1361.11 -1058.672,130.73 -1099.331,44.03 -1360.816,-2898.79 -148.251,-1668.19 -270.902,-4086.98 -272.541,-5374.62 -1.733,-1287.64 -191.818,-2341.21 -422.621,-2341.21 -230.783,0 -419.616,-300.93 -419.616,-668.92 0,-368 -283.249,-668.92 -629.444,-668.92 -346.213,0 -629.443,200.77 -629.443,446.02 0,245.26 -283.269,445.8 -629.465,445.8 -519.849,0 -629.443,821.77 -629.443,4719.83 0,3576.85 -127.007,4674.9 -524.532,4535.05 -350.412,-123.2 -565.537,-1428.87 -648.01,-3932.52 -89.353,-2712.4 -292.263,-3848.55 -734.359,-4111.38 -335.986,-199.85 -610.877,-754.7 -610.877,-1233.11 0,-764.97 -301.007,-869.69 -2501.461,-869.69 h -2501.444 l -121.246,3897.15 c -102.545,3296.22 -234.462,3919.97 -855.604,4046.14 -649.977,132.09 -734.339,-261.46 -734.339,-3424.67 0,-1965.69 -188.834,-3698.21 -419.636,-3849.7 -230.803,-151.49 -419.635,137.57 -419.635,642.68 0,518.8 -273.736,918.05 -629.446,918.05 -346.193,0 -629.443,291.11 -629.443,646.79 0,355.9 -267.744,807.4 -594.986,1003.38 -403.593,242.06 -707.335,1708.11 -944.185,4557.4 -222.907,2681.83 -538.842,4267.66 -873.71,4385.38 -343.729,120.69 -524.532,-289.51 -524.532,-1190.68 0,-924.9 -206.032,-1375.03 -629.462,-1375.03 -453.016,0 -629.425,492.56 -629.425,1757.62 0,966.43 -162.137,1863.94 -360.274,1993.98 -198.156,130.27 -467.364,1491.6 -598.223,3025.42 -130.876,1533.81 -440.841,2860.69 -688.805,2948.53 -247.983,87.84 -450.858,717.06 -450.858,1398.29 0,681.02 -121.44,2179.91 -269.882,3330.9 -249.237,1932.38 -353.592,2082.05 -1363.803,1957.48 l -1093.918,-134.84 -111.443,-12598.33 c -69.783,-7888.3 -265.878,-12598.1 -524.53,-12598.1 -227.221,0 -413.108,217.42 -413.108,483.21 0,885.65 -1021.767,135.29 -1310.41,-962.09 -156.436,-595.22 -303.281,1058.59 -326.278,3674.94 -29.181,3316.3 -197.057,4811.79 -554.425,4938.41 -380.998,134.83 -555.23,3235.99 -678.636,12077.7 -135.982,9744.03 -271,11896.34 -746.279,11896.34 -472.449,0 -580.291,-1491.37 -580.291,-8027.02 z m 67589.771,-10256.89 c 214.759,0 390.457,-1727.28 390.457,-3838.29 0,-3228.7 99.982,-3797.69 629.444,-3581.64 530.673,216.28 629.443,-370.96 629.443,-3742.92 v -3999.6 h -2517.776 c -2251.014,0 -2517.797,96.05 -2517.797,905.96 0,498.27 263.142,1013.19 584.741,1144.37 429.863,175.22 664.498,1649.03 885.882,5564.66 165.625,2929.37 468.983,5436.44 674.15,5571.28 205.166,134.6 398.736,1085.96 430.17,2113.98 31.415,1027.78 138.968,1417.45 238.99,865.58 100.021,-551.89 357.559,-1003.38 572.296,-1003.38 z M 48688.301,108286.96 c 275.237,-4191.23 254.378,-4347.97 -579.058,-4347.97 -794.857,0 -864.582,265.11 -864.582,3288.93 0,3711.21 381.404,6310.45 846.571,5769.53 171.346,-199.4 440.016,-2319.09 597.069,-4710.49 z m 52688.759,-111.33 v -4236.64 l -3671.762,35.14 c -2019.478,18.25 -3435.734,136.43 -3147.241,260.31 288.495,123.65 524.541,785.5 524.541,1470.84 0,685.35 272.041,1486.13 604.547,1779.3 332.486,293.39 662.943,1070.45 734.334,1727.05 94.924,872.65 335.754,1156.46 895.759,1054.94 421.268,-76.21 1249.555,375.29 1840.649,1003.37 1912.883,2032.99 2219.173,1605.9 2219.173,-3094.31 z m 35668.63,1735.94 c 0,-832.04 188.85,-1513.05 419.63,-1513.05 230.8,0 419.62,-1003.37 419.62,-2229.88 0,-2202.5 -16.01,-2229.65 -1318.67,-2229.65 h -1318.67 l 269.6,2741.15 c 148.29,1507.58 269.6,3307.4 269.6,3999.6 0,935.38 161.56,1192.5 629.45,1001.77 388.37,-158.33 629.44,-836.37 629.44,-1769.94 z m 6294.47,-2181.97 c 0,-3072.18 -119.31,-3790.61 -629.44,-3790.61 -482.41,0 -629.48,566.94 -629.48,2426.31 0,1334.65 188.87,2550.65 419.65,2702.14 230.8,151.49 419.62,765.42 419.62,1364.08 0,598.87 94.44,1088.69 209.82,1088.69 115.42,0 209.83,-1705.82 209.83,-3790.61 z m -78470.988,419.56 c 0,-1411.3 170.825,-1980.52 594.466,-1980.52 326.973,0 689.731,250.96 806.144,557.59 116.412,306.62 226.565,77.79 244.785,-508.31 18.203,-586.1 363.588,-1332.36 767.487,-1658.15 634.028,-511.49 347.389,-594.31 -2098.159,-606.63 l -2832.517,-13.69 v 2214.14 c 0,1688.26 224.234,2462.81 944.165,3262 1246.022,1382.78 1573.629,1119.27 1573.629,-1265.74 z m 13121.424,137.8 c 397.834,-797.13 842.044,-2101.43 987.137,-2898.57 l 263.797,-1449.4 -2045.694,6.85 c -1125.141,4.56 -1835.211,154.22 -1577.943,334.46 257.266,180.23 601.323,1481.56 764.559,2891.95 163.215,1410.39 429.074,2564.11 590.787,2564.11 161.694,0 619.505,-652.04 1017.357,-1449.17 z M 124261,105611.29 c 263.78,-1525.6 206.79,-1672.3 -649.24,-1672.3 -827.23,0 -907.35,165.18 -676.17,1393.51 144.27,766.56 262.28,1709.71 262.28,2095.95 0,1241.11 758.51,-55.43 1063.13,-1817.16 z m -98417.494,-111.56 c 0,-858.28 -188.852,-1560.74 -419.654,-1560.74 -230.783,0 -419.617,702.46 -419.617,1560.74 0,858.5 188.834,1560.96 419.617,1560.96 230.802,0 419.654,-702.46 419.654,-1560.96 z m 128407.044,0 c 0,-1523.55 -39.95,-1560.74 -1678.51,-1560.74 -923.18,0 -1678.54,200.77 -1678.54,446.03 0,245.25 283.25,445.79 629.45,445.79 346.21,0 629.44,200.77 629.44,446.02 0,245.26 283.27,446.02 629.47,446.02 346.19,0 629.45,300.92 629.45,668.92 0,367.77 188.83,668.92 419.63,668.92 230.79,0 419.61,-702.46 419.61,-1560.96 z m 11330.04,-1114.71 c 0,-245.26 -188.82,-446.03 -419.62,-446.03 -230.81,0 -419.63,200.77 -419.63,446.03 0,245.25 188.82,445.79 419.63,445.79 230.8,0 419.62,-200.54 419.62,-445.79 z M 39905.341,98253.192 c -168.225,-2636.886 -458.659,-4896.195 -645.43,-5020.989 -186.774,-124.796 -419.136,-927.405 -516.383,-1783.857 -97.228,-856.225 -207.017,13.688 -243.958,1931.009 -46.747,2428.821 -258.326,3691.14 -696.588,4157.01 -346.213,367.995 -629.462,1055.851 -629.462,1529.02 0,472.942 -188.815,860.102 -419.617,860.102 -230.803,0 -419.635,702.223 -419.635,1560.733 0,1558.68 2.965,1560.96 1938.466,1560.96 h 1938.469 z m 4821.545,3901.948 c 0,-490.51 -188.833,-891.82 -419.635,-891.82 -230.784,0 -419.616,401.31 -419.616,891.82 0,490.51 188.832,892.04 419.616,892.04 230.802,0 419.635,-401.53 419.635,-892.04 z m 15106.715,446.02 c 0,-245.26 -283.25,-446.02 -629.443,-446.02 -512.57,0 -629.446,-740.33 -629.446,-3987.274 0,-2192.918 -188.832,-4111.153 -419.635,-4262.867 -230.802,-151.487 -419.636,-952.956 -419.636,-1781.119 0,-827.935 -228.26,-2070.405 -507.234,-2760.769 -457.079,-1131.137 -535.22,-814.246 -789.983,3204.052 -155.492,2452.775 -304.9,5389.442 -332.019,6525.827 -36.594,1534.72 -238.159,2137.02 -783.645,2341.44 -403.881,151.49 -970.4,392.41 -1258.888,535.23 -391.515,193.92 -524.531,-491.43 -524.531,-2702.367 0,-2059.683 -142.125,-2868.682 -466.556,-2655.824 -256.592,168.599 -623.993,35.819 -816.446,-295.218 -547.971,-942.233 -709.377,-430.05 -1032.208,3274.778 l -301.201,3456.151 h 4455.436 c 2690.525,0 4455.435,-176.81 4455.435,-446.02 z m 14267.443,-1505.07 c 0,-2596.501 -434.063,-4781.435 -890.351,-4481.655 -202.701,133.008 -368.537,1634.879 -368.537,3337.29 0,2454.145 130.396,3095.455 629.445,3095.455 463.587,0 629.443,-514.24 629.443,-1951.09 z m 17624.517,1095.55 c 0,-1329.17 -452.354,-2266.153 -1093.983,-2266.153 -321.501,0 -584.547,-194.379 -584.547,-432.104 0,-237.499 -283.249,-316.436 -629.444,-175.215 -410.353,167.458 -629.463,861.012 -629.463,1992.842 0,1686.89 41.719,1736.17 1468.714,1736.17 1168.102,0 1468.723,-175.21 1468.723,-855.54 z m 13428.179,-1571 c 0,-1334.411 -188.82,-2550.418 -419.62,-2701.907 -230.81,-151.714 -422.54,-915.997 -426.07,-1698.758 -7.84,-1739.597 -666.92,-3113.022 -997.85,-2079.531 -115.6,361.15 -267.38,2512.777 -337.31,4781.894 l -127.1,4125.072 h 1153.96 c 1117.48,0 1153.99,-76.89 1153.99,-2426.54 z m 6294.47,-3985.216 c 0,-4775.963 -141.73,-6536.778 -555.51,-6901.808 -1025.63,-904.59 -1542.65,389.898 -1542.65,3862.476 0,2752.784 -104.87,3260.404 -629.44,3046.406 -524.88,-214 -629.46,296.587 -629.46,3074.01 v 3330.672 h 1678.54 1678.52 z m 7553.34,2175.123 c 0,-3468.47 -114.1,-4236.631 -629.44,-4236.631 -346.19,0 -629.44,284.268 -629.44,631.731 0,347.463 -207.41,705.421 -460.9,795.081 -253.5,89.889 -561.8,1114.711 -685.11,2277.104 -123.31,1162.85 -388.01,2221.668 -588.17,2353.078 -200.19,131.41 -363.98,728.92 -363.98,1327.57 0,972.8 178.67,1088.7 1678.52,1088.7 h 1678.52 z m 8812.27,3147.933 c 0,-598.65 -188.84,-1212.59 -419.65,-1364.07 -244.81,-160.85 -419.62,292.7 -419.62,1088.47 0,750.36 188.84,1364.3 419.62,1364.3 230.81,0 419.65,-490.05 419.65,-1088.7 z m 1565.13,-3249.457 c -90.83,-925.35 -166.68,-277.649 -168.56,1439.357 -1.73,1717.01 72.48,2474 165.16,1682.34 92.7,-791.66 94.24,-2196.572 3.36,-3121.697 z m 3751.64,-3276.601 c -148.8,-4188.037 -406.49,-7848.378 -572.66,-8134.014 -485.47,-834.778 -879.66,1361.564 -925.6,5157.193 -23.93,1977.323 -221.41,3456.151 -461.48,3456.151 -244.78,0 -419.62,1486.585 -419.62,3567.715 v 3567.713 h 1324.95 1324.93 z M 146988,101383.33 c -106.39,-433.93 -200.44,-186.85 -209,548.91 -8.55,735.76 78.51,1090.76 193.45,788.92 114.94,-302.06 121.95,-904.13 15.57,-1337.83 z"
     id="path4"
     style="stroke-width:2.45097" />
</svg>
