<?xml version="1.0" standalone="no"?>
<!DOCTYPE svg PUBLIC "-//W3C//DTD SVG 20010904//EN"
 "http://www.w3.org/TR/2001/REC-SVG-20010904/DTD/svg10.dtd">
<svg version="1.0" xmlns="http://www.w3.org/2000/svg"
 width="600.000000pt" height="600.000000pt" viewBox="0 0 600.000000 600.000000"
 preserveAspectRatio="xMidYMid meet">
<metadata>
Created by potrace 1.14, written by Peter Selinger 2001-2017
</metadata>
<g transform="translate(0.000000,600.000000) scale(0.100000,-0.100000)"
fill="#000000" stroke="none">
<path d="M2730 5121 c0 -6 5 -13 10 -16 6 -3 10 1 10 9 0 9 -4 16 -10 16 -5 0
-10 -4 -10 -9z"/>
<path d="M2620 5100 c-22 -11 -37 -14 -41 -8 -4 7 -9 6 -13 -1 -4 -6 -16 -11
-27 -11 -11 0 -17 5 -14 10 3 6 2 10 -3 10 -5 0 -15 -11 -22 -25 -7 -14 -22
-25 -32 -25 -10 0 -18 -4 -18 -10 0 -5 -7 -7 -15 -4 -8 4 -15 2 -15 -4 0 -6 5
-12 11 -14 7 -2 -1 -12 -16 -22 -27 -18 -27 -18 -20 6 6 21 5 22 -8 6 -8 -10
-25 -18 -37 -18 -13 0 -20 -3 -17 -7 11 -10 -23 -42 -38 -37 -7 3 -16 0 -20
-5 -3 -6 -11 -9 -16 -6 -18 12 -9 -11 11 -25 21 -15 27 -54 10 -65 -5 -3 -7 0
-4 8 7 20 -13 32 -30 17 -11 -8 -15 -8 -19 2 -3 8 -6 6 -6 -5 -1 -14 -6 -17
-22 -12 -18 6 -20 4 -14 -14 4 -12 2 -21 -4 -21 -6 0 -11 9 -11 20 0 11 -4 20
-10 20 -5 0 -10 -4 -10 -10 0 -5 -4 -10 -10 -10 -5 0 -10 7 -10 16 0 24 -23
11 -31 -17 -4 -13 -7 -18 -8 -11 -2 20 -42 5 -74 -29 -15 -16 -32 -30 -38 -30
-5 -1 -13 -3 -19 -4 -5 -1 -14 -3 -20 -4 -5 0 -10 -6 -10 -12 0 -5 5 -7 10 -4
19 12 10 -6 -20 -38 -16 -18 -30 -35 -30 -38 0 -3 -19 -21 -42 -39 -24 -19
-37 -26 -29 -17 17 22 7 34 -14 17 -9 -8 -14 -22 -12 -32 3 -10 2 -16 -2 -13
-10 5 -84 -45 -77 -52 3 -3 21 4 41 16 58 34 62 24 6 -21 -28 -23 -53 -50 -57
-60 -3 -10 -12 -18 -20 -18 -8 0 -24 -16 -35 -35 -12 -19 -25 -32 -30 -29 -5
3 -9 -1 -9 -9 0 -7 -12 -24 -26 -38 -32 -29 -88 -109 -77 -109 4 0 -9 -15 -29
-33 -21 -19 -38 -39 -38 -45 0 -7 -4 -12 -8 -12 -4 0 -8 -9 -9 -21 -2 -18 0
-19 14 -7 14 11 15 11 11 -2 -2 -8 -15 -20 -27 -26 -17 -9 -19 -13 -7 -17 17
-7 10 -46 -10 -54 -10 -3 -10 -11 -3 -31 7 -18 7 -28 0 -30 -5 -2 -7 -10 -4
-18 3 -8 -2 -32 -11 -54 -9 -22 -16 -59 -16 -81 0 -24 -4 -38 -10 -34 -6 4
-10 -5 -10 -19 0 -14 -4 -26 -9 -26 -5 0 -12 -11 -15 -25 -4 -14 -10 -24 -15
-21 -7 5 -72 -185 -71 -211 0 -7 -4 -13 -9 -13 -11 0 -31 -56 -30 -84 1 -19 2
-18 9 4 6 20 8 14 10 -30 1 -30 2 -63 1 -72 -1 -10 2 -18 8 -18 6 0 7 -7 4
-17 -4 -11 -3 -14 5 -9 8 5 10 -2 5 -26 -3 -18 -7 -35 -9 -37 -1 -2 5 -11 14
-21 12 -13 26 -17 44 -13 15 3 25 9 22 14 -3 5 10 9 30 9 19 0 43 3 53 6 14 5
15 4 4 -4 -11 -8 -10 -11 5 -15 10 -2 2 -5 -19 -6 -21 0 -50 -9 -64 -18 -15
-10 -24 -12 -20 -5 10 14 -11 16 -33 2 -13 -8 -12 -10 3 -10 17 0 17 -2 3 -22
-19 -27 -21 -104 -3 -112 9 -5 9 -7 0 -12 -7 -3 -9 -12 -6 -20 3 -7 9 -12 13
-9 4 3 6 -10 5 -28 -3 -39 1 -48 20 -40 11 3 15 21 15 56 0 70 18 49 31 -34
12 -82 27 -140 28 -114 2 20 2 20 16 1 8 -11 15 -27 15 -36 0 -9 7 -17 15 -17
12 0 14 7 10 31 -5 23 -4 27 4 16 6 -8 11 -25 11 -37 0 -12 6 -26 13 -30 20
-13 47 -60 47 -83 0 -12 12 -46 26 -76 35 -74 23 -80 -16 -10 -43 76 -60 74
-60 -6 0 -84 7 -93 72 -93 l52 0 76 -98 c80 -105 148 -163 236 -202 30 -13 54
-30 54 -36 0 -10 3 -10 12 -1 7 7 40 12 80 12 72 0 81 7 54 45 -7 11 -14 22
-14 25 -13 96 -22 110 -105 163 -77 50 -142 122 -187 207 -21 42 -53 94 -71
115 -17 22 -45 67 -60 100 -48 99 -37 234 20 265 13 7 22 7 26 0 3 -5 12 -10
18 -10 7 0 6 4 -3 10 -13 9 -13 10 0 9 8 0 24 -4 34 -8 16 -6 12 -10 -24 -28
l-43 -20 42 -7 c25 -4 50 -2 63 5 14 8 18 8 14 0 -5 -7 4 -11 23 -11 16 0 33
-6 38 -12 12 -20 13 -78 1 -75 -6 1 -13 -4 -16 -12 -2 -8 0 -11 6 -7 6 3 12
-2 14 -11 2 -13 8 -8 20 17 10 19 18 28 18 19 0 -9 7 -22 15 -29 9 -7 14 -19
11 -25 -4 -12 12 -35 25 -35 4 0 9 9 12 21 3 12 10 18 16 14 18 -10 12 -33 -9
-40 -11 -4 -17 -11 -14 -17 4 -6 1 -14 -6 -18 -9 -6 -9 -12 0 -29 6 -12 8 -31
4 -43 -5 -17 -3 -20 11 -14 13 5 16 2 11 -10 -3 -8 -6 -20 -6 -25 0 -6 -4 -7
-10 -4 -5 3 -15 -5 -22 -19 -16 -37 6 -106 33 -99 15 4 19 0 19 -20 0 -14 -4
-29 -10 -32 -15 -9 -12 -34 5 -51 13 -14 15 -11 15 26 0 23 6 47 13 53 13 13
46 15 63 4 7 -4 15 0 18 9 5 13 9 14 21 4 8 -7 15 -9 15 -5 0 4 16 -5 36 -20
35 -27 36 -27 78 -11 51 20 89 53 82 72 -3 8 0 13 7 11 7 -1 15 -11 18 -22 6
-18 7 -17 18 8 6 16 16 25 21 22 6 -4 8 -10 5 -15 -3 -5 -1 -11 4 -14 5 -4 5
-21 1 -43 -5 -21 -7 -39 -4 -42 2 -2 4 1 4 7 0 7 6 12 14 12 14 0 28 -38 23
-62 -2 -7 -2 -10 0 -5 8 14 22 7 17 -8 -4 -9 0 -15 9 -15 15 0 27 -20 27 -46
0 -9 -4 -12 -10 -9 -16 10 -12 -7 10 -43 11 -18 20 -39 20 -47 0 -28 -129 -46
-184 -25 -16 6 -27 6 -31 0 -4 -6 7 -13 24 -16 17 -4 31 -10 31 -14 0 -4 17
-7 38 -6 20 1 45 -3 54 -8 12 -7 21 -7 30 2 6 6 19 12 28 12 12 -1 11 -4 -4
-15 -23 -17 -2 -21 24 -5 9 6 17 5 21 -2 5 -7 15 -3 30 11 13 13 33 27 44 32
11 6 6 -3 -12 -20 -37 -34 -40 -41 -18 -41 8 0 15 5 15 11 0 6 6 9 13 6 8 -3
20 -1 28 3 8 5 16 5 20 -1 4 -7 13 -4 23 6 9 10 20 14 24 10 4 -4 1 -10 -5
-12 -7 -3 -13 -10 -13 -17 0 -7 -11 -19 -25 -26 -31 -16 -35 -44 -5 -35 11 3
20 2 20 -3 0 -5 -8 -12 -18 -14 -10 -3 -18 -14 -19 -26 -2 -20 2 -19 50 12 71
45 85 49 96 27 8 -14 1 -27 -40 -67 -27 -26 -49 -44 -49 -40 0 5 -14 -5 -30
-23 -17 -17 -34 -31 -40 -31 -5 0 -7 -7 -4 -15 4 -8 16 -15 27 -15 l21 0 -21
-15 c-31 -22 -20 -65 17 -65 10 0 22 -5 26 -12 4 -7 3 -8 -4 -4 -18 11 -86
-24 -72 -38 7 -7 16 -7 30 2 28 17 48 15 24 -3 -18 -14 -18 -14 6 -15 14 0 35
-3 47 -6 19 -5 20 -8 8 -20 -9 -9 -24 -12 -39 -8 -14 3 -30 3 -36 -1 -18 -11
16 -35 49 -35 17 0 31 -4 31 -10 0 -5 -4 -10 -9 -10 -5 0 -8 -11 -7 -25 1 -22
6 -25 37 -25 33 0 36 -2 31 -25 -2 -14 -8 -25 -12 -25 -4 0 -10 -9 -13 -20 -3
-11 -1 -20 5 -20 5 0 12 8 14 18 4 14 18 17 77 19 50 2 67 0 57 -7 -8 -5 -34
-10 -57 -10 -24 0 -43 -4 -43 -10 0 -10 13 -14 36 -11 6 1 24 -6 40 -14 16 -8
48 -15 72 -15 53 0 54 -16 2 -31 -45 -14 -53 -29 -15 -29 14 0 25 4 25 10 0 5
8 14 18 19 26 14 92 -7 85 -25 -3 -8 -1 -14 5 -14 6 0 12 4 14 9 2 4 14 -3 28
-17 l25 -24 -27 6 c-14 3 -33 9 -42 12 -11 4 -16 1 -16 -10 0 -9 6 -18 13 -20
6 -2 26 -7 42 -13 21 -6 38 -6 54 1 16 7 28 6 42 -2 24 -16 29 -15 29 3 0 8
-6 15 -12 15 -7 0 -5 5 5 11 14 8 22 8 30 0 8 -8 8 -11 -1 -11 -7 0 -12 -4
-12 -10 0 -5 9 -10 21 -10 11 0 17 5 14 10 -9 15 28 12 63 -6 40 -20 41 -25 2
-14 -23 7 -30 5 -30 -6 0 -8 4 -14 10 -14 5 0 9 -6 7 -12 -1 -8 10 -13 31 -13
17 0 32 -3 32 -7 0 -19 17 -5 27 22 8 22 17 30 35 29 23 -1 23 -1 -2 -8 -27
-7 -21 -15 23 -25 15 -3 27 -11 27 -17 0 -6 -4 -7 -10 -4 -5 3 -10 1 -10 -4 0
-17 28 -13 39 6 7 14 12 15 24 4 9 -7 18 -20 20 -29 2 -9 3 -6 1 8 -4 40 9 53
46 45 23 -5 30 -4 26 4 -13 21 -15 51 -3 58 7 4 24 6 39 4 18 -2 28 3 31 16 3
11 5 8 6 -11 l1 -28 20 23 19 24 1 -24 c0 -21 3 -19 38 20 71 82 90 96 118 93
15 -1 38 2 53 8 14 6 42 13 61 15 19 2 37 8 38 14 2 5 8 6 13 3 6 -3 16 -1 23
5 7 6 28 12 46 14 18 2 39 12 46 21 7 10 18 16 26 14 15 -3 88 66 88 84 0 6 3
9 6 5 11 -10 34 20 34 45 0 38 12 68 23 61 6 -3 7 -1 3 6 -4 6 -1 18 7 26 12
11 14 33 10 97 -6 108 -6 98 2 136 6 25 4 32 -8 32 -8 0 -17 -3 -19 -7 -4 -11
-98 -56 -123 -60 -11 -2 -29 -7 -40 -12 -11 -5 -36 -12 -55 -15 -20 -3 -42
-15 -50 -26 -10 -14 -17 -17 -27 -8 -10 8 -13 6 -13 -7 0 -10 -6 -15 -17 -13
-10 2 -26 -5 -36 -15 -10 -10 -25 -16 -33 -13 -8 3 -14 1 -14 -4 0 -5 -6 -7
-14 -4 -8 3 -16 -2 -18 -12 -3 -17 -4 -17 -21 0 -15 16 -18 16 -23 1 -5 -12
-9 -13 -20 -4 -11 9 -14 8 -14 -7 -1 -16 -3 -15 -15 6 -8 14 -14 19 -15 10 0
-9 -3 -11 -10 -4 -14 14 0 56 17 50 8 -3 16 2 19 12 14 42 38 80 49 75 7 -2
15 6 19 19 10 38 6 45 -10 18 l-15 -25 4 27 c3 17 0 25 -6 21 -6 -4 -8 3 -4
18 4 13 7 27 7 31 0 9 80 5 80 -5 0 -18 26 1 37 28 6 17 12 24 12 17 1 -7 5
-10 11 -7 6 3 10 -2 11 -12 0 -10 6 -3 14 17 7 19 14 28 14 20 1 -10 4 -11 9
-4 4 6 22 10 39 9 18 -1 30 1 27 7 -3 5 5 6 20 2 19 -4 26 -2 26 9 0 10 8 13
25 9 21 -4 25 0 25 19 0 22 1 22 17 7 15 -16 18 -16 33 2 12 13 27 19 46 17
34 -4 69 6 69 20 0 5 8 17 18 27 9 10 17 14 17 10 0 -13 51 40 66 68 19 36 18
132 0 151 -21 21 -91 6 -125 -27 -34 -32 -56 -33 -103 -1 -35 24 -37 24 -93
10 -31 -8 -67 -15 -80 -15 -27 0 -41 -15 -23 -24 10 -5 10 -7 1 -12 -7 -3 -13
-12 -13 -20 0 -8 -5 -14 -11 -14 -5 0 -8 -4 -4 -9 3 -5 0 -13 -6 -17 -6 -3
-15 0 -20 7 -7 11 -9 10 -9 -3 0 -10 -7 -18 -15 -18 -8 0 -12 -6 -9 -15 5 -11
-1 -13 -25 -10 -17 2 -31 0 -31 -5 0 -4 -8 -7 -17 -6 -10 0 -17 -5 -15 -11 1
-7 3 -19 5 -25 1 -7 -4 -12 -10 -10 -7 1 -13 -3 -13 -9 0 -5 -4 -7 -10 -4 -12
8 -13 -5 -1 -25 6 -8 7 -18 4 -24 -4 -5 -10 -1 -14 10 -7 17 -8 16 -8 -6 -1
-20 -3 -22 -11 -10 -5 8 -10 10 -10 4 0 -17 -40 -60 -40 -43 -1 8 -7 -4 -15
-26 -8 -22 -19 -41 -25 -43 -5 -2 -10 -10 -10 -18 0 -7 -6 -11 -14 -8 -14 5
-26 -23 -26 -63 0 -12 -5 -23 -12 -25 -7 -3 -9 -12 -5 -22 6 -15 10 -16 22 -6
8 7 12 16 9 21 -3 5 0 9 5 9 14 0 14 -77 0 -86 -6 -3 -9 -17 -6 -30 2 -14 0
-27 -4 -30 -5 -3 -9 -20 -9 -37 0 -21 -3 -28 -9 -19 -6 10 -10 4 -15 -20 -7
-32 -8 -32 -17 -10 -7 18 -3 31 16 60 14 21 25 50 24 67 -1 26 -2 25 -11 -12
-9 -43 -24 -53 -45 -32 -9 9 -14 5 -18 -14 -4 -15 -23 -36 -43 -49 -21 -12
-43 -26 -49 -31 -9 -5 -11 -3 -7 8 5 13 -1 11 -30 -6 -20 -11 -36 -18 -36 -14
0 4 -7 2 -15 -5 -8 -6 -19 -9 -25 -5 -6 4 -9 3 -8 -2 3 -8 -5 -13 -23 -13 -5
0 -7 5 -4 11 5 7 -3 9 -21 7 -16 -2 -28 -7 -28 -13 1 -5 -11 -20 -27 -33 -22
-18 -29 -20 -29 -9 0 8 8 18 17 21 11 5 13 10 6 17 -8 8 -20 6 -41 -5 -17 -9
-33 -16 -36 -16 -3 0 9 23 26 52 21 33 33 66 33 90 l1 38 -36 -39 c-38 -43
-146 -139 -117 -105 20 24 22 38 5 28 -7 -4 -4 2 6 14 11 12 26 21 35 20 10
-2 15 4 15 14 -1 10 2 15 7 13 14 -9 49 33 42 51 -3 8 -9 12 -12 7 -3 -4 -20
-8 -37 -8 -20 1 -30 -4 -27 -11 2 -6 -4 -17 -14 -24 -15 -12 -16 -12 -5 0 17
20 15 33 -5 26 -13 -4 -12 -1 5 13 25 22 29 36 7 27 -8 -3 -15 -1 -15 5 0 5
-10 0 -22 -11 -13 -12 -32 -26 -43 -32 -13 -7 -11 -2 8 15 15 14 27 28 27 31
0 10 -46 -8 -59 -23 -12 -14 -13 -14 -7 4 6 16 5 18 -5 8 -7 -7 -21 -13 -30
-13 -10 0 -20 -6 -23 -12 -5 -10 -7 -10 -12 0 -5 10 -10 9 -21 -5 -13 -16 -13
-15 0 7 9 14 20 24 25 23 6 -1 13 5 16 13 9 23 -35 8 -56 -19 -38 -48 -52 -61
-56 -49 -2 6 9 23 25 36 18 17 23 25 13 26 -10 0 -4 9 15 26 l30 25 -32 -17
c-18 -10 -33 -22 -33 -26 0 -4 -7 -8 -15 -8 -23 0 -8 22 35 53 24 17 37 33 34
42 -3 7 4 23 16 35 12 12 19 28 16 35 -3 9 0 12 8 9 7 -3 20 6 30 20 25 39 19
54 -10 23 -14 -15 -29 -25 -33 -23 -10 7 -33 -43 -26 -55 4 -5 1 -9 -4 -9 -6
0 -11 -6 -11 -14 0 -17 -18 -31 -27 -22 -3 3 0 12 7 21 8 9 8 15 2 15 -6 0
-13 -3 -16 -8 -2 -4 -26 -23 -53 -41 l-48 -34 28 30 c21 23 25 32 15 37 -7 3
-4 4 7 3 17 -2 20 3 18 36 -2 22 2 37 8 37 6 0 9 7 5 15 -8 21 15 70 25 53 9
-15 24 35 16 56 -3 8 1 22 8 33 16 20 20 37 6 29 -4 -3 -6 6 -3 19 2 14 8 25
12 25 5 0 6 10 2 22 -3 12 -1 19 4 15 6 -3 16 3 23 15 7 11 8 17 2 13 -6 -3
-11 0 -11 7 -1 7 -9 -3 -19 -22 -16 -28 -19 -31 -23 -15 -2 11 -4 -7 -5 -40
-1 -36 -10 -79 -22 -105 -11 -25 -21 -38 -21 -30 0 10 -8 6 -24 -12 -13 -15
-26 -24 -30 -21 -3 3 -24 -9 -47 -26 -50 -36 -62 -34 -24 4 18 17 25 33 22 46
-3 12 -1 17 6 12 7 -4 8 0 3 13 -4 10 -4 15 0 11 8 -8 34 11 34 25 0 6 -6 8
-14 5 -11 -5 -11 0 2 23 9 16 20 26 23 24 4 -2 6 16 4 41 -1 25 1 48 6 51 5 3
6 -3 2 -13 -5 -14 -2 -14 16 5 30 31 36 28 12 -7 -25 -35 -26 -38 -5 -38 16 0
74 71 74 90 0 6 -6 3 -13 -8 -13 -17 -14 -15 -21 15 -6 31 -7 32 -24 17 -25
-23 -30 -21 -25 7 8 38 -13 39 -31 1 -9 -19 -19 -35 -22 -35 -3 0 -3 4 0 9 4
5 1 11 -5 13 -8 3 -7 13 3 33 16 31 14 60 -3 49 -5 -3 -9 3 -10 13 0 10 -7 0
-15 -21 -18 -49 -22 -54 -20 -22 0 14 5 26 9 26 5 0 6 4 3 9 -4 5 -2 20 3 34
8 22 7 24 -10 20 -15 -4 -19 0 -19 18 0 13 -5 31 -10 39 -7 11 -10 5 -11 -25
-1 -22 -3 -32 -6 -23 -2 10 -10 15 -19 11 -10 -4 -14 2 -14 20 0 14 -3 33 -6
42 -6 13 -9 14 -16 3 -6 -9 -8 -2 -7 22 0 19 0 40 -1 45 -1 6 -2 18 -1 28 1 9
-3 17 -10 17 -7 0 -9 10 -7 25 3 14 1 25 -5 25 -5 0 -5 6 2 14 6 7 9 20 6 29
-4 8 1 31 9 52 14 33 14 36 1 25 -12 -10 -15 -10 -15 2 0 8 6 22 13 31 11 15
49 16 377 16 201 0 375 0 388 -1 12 0 22 -5 22 -10 0 -6 7 -4 17 3 12 10 17
11 20 2 2 -7 10 -10 17 -7 15 6 30 -25 51 -107 22 -86 55 -170 64 -165 4 3 15
-8 25 -25 25 -43 84 -69 153 -69 141 0 275 120 340 303 21 58 26 96 30 202 6
153 11 167 53 155 21 -6 28 -5 24 2 -5 7 0 9 14 6 15 -4 22 -2 22 7 0 8 5 17
10 20 6 4 10 -17 10 -55 0 -38 -4 -59 -10 -55 -5 3 -10 -1 -10 -10 0 -8 7 -18
15 -21 8 -4 15 -11 15 -18 0 -6 13 -27 29 -46 l29 -35 -5 110 c-8 165 26 285
101 354 26 24 35 51 17 51 -5 0 -31 -24 -57 -52 -49 -54 -51 -50 -5 12 14 19
26 38 26 42 0 4 9 13 19 21 23 17 15 46 -13 54 -11 3 -22 11 -25 19 -3 8 -13
14 -22 14 -10 0 -14 -3 -11 -7 4 -3 -5 -14 -21 -23 -25 -16 -56 -68 -79 -135
-6 -16 -14 -38 -18 -48 -7 -16 -4 -17 20 -11 34 9 31 -11 -7 -39 -20 -15 -45
-20 -100 -22 -40 -1 -82 -5 -92 -10 -12 -5 -17 -5 -14 1 4 5 0 17 -7 27 -13
18 -14 18 -24 0 -10 -17 -10 -17 -11 0 0 10 -4 15 -10 12 -6 -4 -10 5 -10 20
0 14 -4 24 -9 20 -5 -3 -12 -1 -16 4 -3 5 -13 10 -23 10 -48 3 -59 2 -84 -2
-16 -2 -28 0 -28 6 0 5 -7 4 -15 -3 -8 -6 -18 -9 -23 -6 -6 3 -15 -1 -22 -9
-15 -18 -40 -20 -40 -2 0 9 -2 9 -8 0 -4 -7 -21 -14 -38 -16 -16 -2 -35 -7
-42 -11 -7 -4 -12 -4 -12 0 0 4 -9 -1 -20 -11 -18 -17 -20 -17 -14 -2 10 28
-4 19 -51 -30 -33 -35 -45 -43 -45 -30 0 17 -2 17 -26 -2 -15 -12 -31 -21 -36
-21 -8 0 -133 -75 -152 -91 -5 -4 2 -5 15 -3 l24 6 -25 -21 c-14 -11 -34 -21
-45 -21 -17 -1 -15 -3 8 -16 32 -17 83 -22 110 -10 14 7 16 5 11 -9 -6 -15 -4
-16 14 -6 18 10 47 15 100 20 7 0 11 5 8 10 -3 5 0 11 7 14 8 3 14 -4 15 -18
1 -16 -9 -30 -37 -48 -70 -46 -136 -57 -411 -67 -140 -5 -256 -7 -259 -5 -2 3
17 13 42 24 91 39 176 185 222 381 l27 115 -7 270 c-13 471 -11 568 15 663 25
94 56 146 88 150 12 2 20 8 17 13 -4 5 2 9 12 10 77 2 153 28 153 52 0 7 4 6
10 -3 8 -13 10 -12 15 1 6 16 31 19 53 5 6 -4 12 -4 12 1 0 4 15 14 33 22 17
7 38 21 46 30 11 14 12 13 6 -8 -5 -16 -4 -21 4 -17 16 10 14 27 -13 79 -13
26 -19 47 -14 47 13 0 -3 51 -23 71 -11 11 -19 24 -19 30 0 5 -15 16 -34 24
-55 23 -142 1 -201 -51 -29 -25 -29 -25 -5 -19 22 6 19 1 -20 -39 -30 -32 -38
-45 -25 -41 11 3 7 -1 -10 -11 -33 -19 -85 -68 -85 -81 0 -4 -27 -34 -60 -67
-33 -32 -60 -56 -60 -53 0 11 37 85 58 117 21 31 19 30 -19 -10 -26 -27 -36
-34 -26 -18 28 46 21 49 -33 16 -19 -12 -43 -22 -54 -23 -17 -2 -17 -1 2 14
23 18 66 91 58 99 -8 8 -83 -16 -138 -44 -26 -13 -72 -44 -102 -68 -44 -36
-52 -40 -41 -20 7 14 21 32 31 40 17 13 16 13 -10 4 -17 -6 -61 -25 -99 -41
-38 -17 -71 -29 -73 -26 -5 5 80 41 276 117 74 29 143 60 154 69 10 9 21 15
25 14 3 -1 8 1 11 4 3 4 -1 3 -8 -1 -9 -6 -11 -1 -8 19 4 22 3 25 -9 15 -8 -7
-12 -16 -9 -21 3 -5 0 -9 -5 -9 -6 0 -11 11 -11 25 0 14 4 25 9 25 6 0 22 11
37 25 15 14 22 25 16 25 -6 0 -16 -8 -21 -17 -6 -11 -11 -13 -11 -5 0 7 7 25
16 40 l16 27 -20 -22 c-11 -13 -25 -23 -31 -23 -6 0 -11 -3 -11 -7 0 -5 -10
-19 -21 -33 l-21 -25 16 27 c23 40 20 55 -8 29 -27 -26 -37 -14 -29 35 2 16 1
25 -4 19 -4 -5 -17 -12 -28 -13 -11 -2 -24 -10 -28 -18 -5 -8 -13 -11 -19 -8
-6 4 -14 0 -20 -7 -7 -12 -9 -11 -7 1 5 49 -21 61 -59 27 -19 -18 -62 -23 -62
-9 0 7 -37 30 -60 38 -3 1 -21 -6 -40 -16z m759 -83 c-2 -1 -15 -11 -29 -22
-15 -12 -20 -14 -12 -4 6 9 10 18 7 20 -2 3 5 6 17 6 11 1 19 1 17 0z m-939
-31 c0 -2 -7 -7 -16 -10 -8 -3 -12 -2 -9 4 6 10 25 14 25 6z m-355 -256 c3 -5
1 -10 -4 -10 -6 0 -11 5 -11 10 0 6 2 10 4 10 3 0 8 -4 11 -10z m-445 -417 c0
-2 -10 -7 -22 -12 -26 -10 -47 -3 -27 9 12 8 49 10 49 3z m-160 -162 c-10 -20
-30 -29 -30 -14 0 10 33 44 37 39 3 -2 0 -14 -7 -25z m57 -166 c-6 -19 -14
-35 -19 -35 -11 0 -10 7 7 40 21 40 26 38 12 -5z m-42 -89 c-9 -20 -13 -41
-10 -47 4 -5 1 -8 -6 -7 -7 2 -17 -12 -22 -29 -10 -34 -27 -45 -27 -18 0 8 5
15 10 15 6 0 10 6 10 13 0 16 51 119 56 114 2 -2 -3 -21 -11 -41z m-72 -92
c-7 -18 -9 -16 -17 21 -6 28 -5 29 8 12 8 -11 12 -25 9 -33z m84 24 c-3 -8 -6
-5 -6 6 -1 11 2 17 5 13 3 -3 4 -12 1 -19z m-10 -50 c-3 -7 -5 -2 -5 12 0 14
2 19 5 13 2 -7 2 -19 0 -25z m-68 -20 c-2 -13 0 -29 4 -35 5 -8 3 -13 -6 -13
-8 0 -18 -7 -21 -16 -10 -26 -6 -30 9 -10 8 11 18 17 21 14 10 -11 -6 -48 -21
-48 -7 0 -16 -8 -18 -17 -2 -11 -3 -9 -2 4 1 12 -2 27 -6 34 -4 7 -1 25 7 40
8 16 14 37 14 49 0 11 5 20 11 20 6 0 9 -10 8 -22z m2945 -233 c-9 -14 -18
-25 -21 -25 -5 0 5 18 20 38 17 22 18 13 1 -13z m-30 -59 c-3 -9 -10 -16 -15
-16 -6 0 -5 9 1 21 13 24 24 20 14 -5z m-259 -120 c46 -49 59 -107 52 -229
-17 -272 -128 -430 -311 -444 -59 -5 -63 -4 -94 26 -47 48 -73 141 -79 286 -5
107 -3 126 17 179 22 59 84 137 124 158 12 6 1 -8 -24 -31 -27 -25 -37 -40
-25 -36 11 4 27 8 36 10 9 2 25 8 35 14 38 22 126 51 153 51 16 0 34 -7 41
-15 7 -8 18 -15 25 -15 8 0 19 -17 26 -37 7 -21 14 -32 16 -25 3 6 -5 33 -17
58 -12 25 -20 48 -16 51 8 8 34 -56 47 -119 14 -65 5 -177 -22 -266 -24 -76
-48 -120 -97 -174 -37 -41 -31 -51 10 -18 36 27 93 143 113 227 13 52 16 99
13 175 -4 115 -23 169 -67 193 -21 11 -22 14 -7 15 10 0 33 -15 51 -34z m-408
-44 c-20 -21 -37 -42 -37 -48 0 -6 -11 -21 -25 -34 -14 -13 -25 -18 -25 -12 0
11 108 132 118 132 3 0 -11 -17 -31 -38z m-776 -25 c-6 -15 -15 -27 -21 -27
-5 0 -10 -5 -10 -10 0 -7 6 -7 20 0 11 6 20 7 20 2 0 -14 -26 -33 -33 -25 -4
3 -18 -4 -32 -17 l-24 -23 5 29 4 29 -17 -27 c-10 -16 -25 -28 -34 -28 -9 0
-19 -7 -23 -15 -10 -26 -34 -18 -28 10 3 16 11 25 23 25 10 0 26 11 34 24 9
13 29 26 45 30 17 3 30 12 30 20 0 15 43 48 48 36 1 -4 -2 -19 -7 -33z m-131
13 c-6 -11 -16 -20 -22 -20 -6 0 -3 9 7 20 10 11 20 20 22 20 2 0 -1 -9 -7
-20z m-1293 -106 c-3 -3 -12 -4 -19 -1 -8 3 -5 6 6 6 11 1 17 -2 13 -5z m2008
-49 c-40 -14 -93 -20 -83 -10 6 6 85 23 108 23 8 0 -3 -6 -25 -13z m-1548
-257 c-3 -8 -6 -5 -6 6 -1 11 2 17 5 13 3 -3 4 -12 1 -19z m183 -118 c0 -5 -5
-10 -11 -10 -5 0 -7 5 -4 10 3 6 8 10 11 10 2 0 4 -4 4 -10z m-87 -175 c-19
-26 -33 -32 -33 -15 0 6 5 10 12 10 6 0 4 8 -6 19 -10 11 -14 25 -9 37 12 34
27 35 41 3 11 -26 10 -33 -5 -54z m266 42 c-6 -9 -31 -23 -56 -30 -45 -12 -45
-12 -17 -18 24 -5 26 -7 11 -14 -37 -16 -87 21 -87 65 0 11 42 18 107 16 46
-1 50 -3 42 -19z m7 -60 c8 3 14 0 14 -6 0 -7 -7 -14 -15 -17 -8 -4 -15 -13
-15 -21 0 -9 5 -11 13 -7 9 6 9 4 -1 -8 -12 -15 -15 -14 -39 8 l-26 24 24 19
c13 11 25 16 27 11 2 -5 10 -6 18 -3z m528 -52 c-4 -8 -11 -15 -16 -15 -6 0
-5 6 2 15 7 8 14 15 16 15 2 0 1 -7 -2 -15z m-377 -57 c-3 -7 -5 -2 -5 12 0
14 2 19 5 13 2 -7 2 -19 0 -25z m410 -10 c-3 -8 -6 -5 -6 6 -1 11 2 17 5 13 3
-3 4 -12 1 -19z m-51 -62 c-8 -20 -18 -36 -21 -36 -3 0 2 16 10 36 8 20 15 39
15 42 0 3 3 3 6 0 3 -3 -2 -22 -10 -42z m-23 -71 c-3 -9 -8 -14 -10 -11 -3 3
-2 9 2 15 9 16 15 13 8 -4z m153 -102 c-11 -11 -17 4 -9 23 7 18 8 18 11 1 2
-10 1 -21 -2 -24z m-213 -18 c-3 -9 -8 -14 -10 -11 -3 3 -2 9 2 15 9 16 15 13
8 -4z m152 -35 c-9 -10 -15 -26 -12 -34 4 -10 1 -13 -8 -10 -16 7 -9 33 14 51
24 18 26 15 6 -7z m-25 -116 c0 -10 -5 -14 -15 -10 -9 3 -18 -1 -22 -11 -9
-24 -83 -91 -107 -97 -19 -4 -18 -3 3 12 32 22 111 104 111 114 0 4 7 8 15 8
8 0 15 -7 15 -16z m991 -59 c12 8 11 -2 -2 -26 -5 -11 -14 -17 -18 -14 -5 3
-12 -6 -15 -20 -7 -28 -35 -65 -49 -65 -5 0 -7 7 -3 15 3 8 1 15 -4 15 -15 0
-12 11 11 50 20 32 23 33 29 15 6 -17 9 -14 21 19 8 23 15 32 17 22 2 -9 8
-14 13 -11z m-951 -16 c-7 -11 -14 -19 -16 -16 -7 7 7 37 17 37 6 0 5 -9 -1
-21z m-30 -7 c0 -4 -10 -9 -22 -9 -18 -2 -20 0 -8 7 18 12 30 13 30 2z m-95
-42 c-3 -5 -12 -10 -18 -10 -7 0 -6 4 3 10 19 12 23 12 15 0z m140 -10 c-3 -5
-12 -10 -18 -10 -7 0 -6 4 3 10 19 12 23 12 15 0z m145 -46 c0 -8 -5 -12 -11
-8 -6 3 -23 -2 -37 -13 -15 -11 -38 -22 -51 -26 -21 -5 -22 -4 -10 8 16 15 89
55 101 55 5 0 8 -7 8 -16z m100 0 c0 -8 -71 -36 -78 -30 -2 3 4 8 14 12 10 3
28 9 39 14 26 11 25 11 25 4z m150 -7 c0 -2 -12 -14 -27 -28 l-28 -24 24 28
c23 25 31 32 31 24z m370 -13 c0 -8 -6 -21 -12 -29 -7 -7 -21 -24 -31 -38 -10
-14 -27 -25 -38 -24 -10 1 -19 3 -19 5 0 12 23 42 32 42 7 0 6 -5 -2 -15 -7
-9 -11 -18 -8 -21 9 -8 58 56 58 77 0 10 5 19 10 19 6 0 10 -7 10 -16z m-387
-39 c-10 -13 -21 -25 -25 -25 -5 0 -8 -6 -8 -14 0 -16 -18 -31 -26 -23 -5 5
64 87 73 87 2 0 -4 -11 -14 -25z m380 -20 c-3 -9 -8 -14 -10 -11 -3 3 -2 9 2
15 9 16 15 13 8 -4z m-903 -40 c0 -7 -30 -13 -34 -7 -3 4 4 9 15 9 10 1 19 0
19 -2z m790 -11 c-16 -19 -75 -44 -103 -44 -24 0 -18 9 9 14 33 7 72 24 79 35
3 6 11 11 17 11 6 0 5 -6 -2 -16z m77 -25 c-14 -22 -34 -32 -42 -19 -7 11 19
37 38 37 12 0 13 -4 4 -18z m-47 7 c0 -2 -8 -10 -17 -17 -16 -13 -17 -12 -4 4
13 16 21 21 21 13z m-760 -30 c0 -2 -7 -7 -16 -10 -8 -3 -12 -2 -9 4 6 10 25
14 25 6z m10 -41 c0 -10 -10 -15 -30 -15 -38 0 -39 17 -2 23 15 2 28 5 30 6 1
0 2 -6 2 -14z m107 -151 c-3 -3 -12 -4 -19 -1 -8 3 -5 6 6 6 11 1 17 -2 13 -5z
m283 -105 c12 -7 10 -8 -7 -9 -28 0 -53 10 -53 22 0 9 33 3 60 -13z m357 -75
c-3 -3 -12 -4 -19 -1 -8 3 -5 6 6 6 11 1 17 -2 13 -5z"/>
<path d="M3806 3197 c-9 -12 -33 -34 -55 -47 -22 -14 -41 -31 -41 -38 0 -7 5
-10 10 -7 6 3 10 -5 10 -19 0 -34 -18 -43 -29 -14 -10 27 -22 27 -32 1 -20
-48 8 -78 42 -47 10 9 25 14 33 11 9 -4 23 1 31 10 9 8 30 17 48 18 17 1 33 9
35 16 3 8 11 22 20 32 8 9 12 17 8 17 -4 0 -2 9 4 20 9 17 7 25 -12 45 -29 31
-53 32 -72 2z"/>
<path d="M3962 3100 c0 -19 2 -27 5 -17 2 9 2 25 0 35 -3 9 -5 1 -5 -18z"/>
<path d="M4041 3064 c0 -11 3 -14 6 -6 3 7 2 16 -1 19 -3 4 -6 -2 -5 -13z"/>
<path d="M4012 3024 c-7 -26 -11 -49 -8 -51 6 -6 28 76 24 88 -2 6 -9 -11 -16
-37z"/>
<path d="M4051 2973 c-7 -21 -15 -45 -18 -53 -4 -10 -2 -12 5 -5 12 12 36 85
30 91 -3 2 -10 -13 -17 -33z"/>
<path d="M3250 5040 c-14 -10 -22 -21 -19 -25 4 -3 20 5 35 19 34 30 21 35
-16 6z"/>
<path d="M3154 5019 c-19 -22 -19 -22 4 -10 12 6 22 16 22 21 0 15 -5 12 -26
-11z"/>
<path d="M3185 4990 c-32 -33 -17 -42 15 -10 17 17 27 40 17 40 -2 0 -16 -13
-32 -30z"/>
<path d="M3109 4919 c-19 -17 -44 -35 -56 -40 -13 -5 -23 -14 -23 -20 0 -8 4
-8 15 1 10 9 15 9 15 1 0 -6 5 -11 10 -11 16 0 81 66 73 73 -3 4 -1 7 5 7 7 0
12 5 12 10 0 17 -15 11 -51 -21z"/>
<path d="M1920 4780 c0 -5 5 -10 10 -10 6 0 10 5 10 10 0 6 -4 10 -10 10 -5 0
-10 -4 -10 -10z"/>
<path d="M1860 4710 c0 -5 5 -10 10 -10 6 0 10 5 10 10 0 6 -4 10 -10 10 -5 0
-10 -4 -10 -10z"/>
<path d="M1850 4659 c0 -5 5 -7 10 -4 6 3 10 8 10 11 0 2 -4 4 -10 4 -5 0 -10
-5 -10 -11z"/>
<path d="M1675 4550 c-3 -5 -1 -10 4 -10 6 0 11 5 11 10 0 6 -2 10 -4 10 -3 0
-8 -4 -11 -10z"/>
<path d="M1470 4275 c-7 -9 -11 -18 -8 -20 3 -3 11 1 18 10 7 9 11 18 8 20 -3
3 -11 -1 -18 -10z"/>
<path d="M1336 4105 c-3 -8 -1 -15 4 -15 6 0 10 7 10 15 0 8 -2 15 -4 15 -2 0
-6 -7 -10 -15z"/>
<path d="M1398 4053 c7 -3 16 -2 19 1 4 3 -2 6 -13 5 -11 0 -14 -3 -6 -6z"/>
<path d="M1216 3865 c-9 -26 -7 -32 5 -12 6 10 9 21 6 23 -2 3 -7 -2 -11 -11z"/>
<path d="M1206 3819 c3 -5 12 -9 21 -9 19 0 9 13 -12 16 -8 1 -13 -2 -9 -7z"/>
<path d="M1270 3803 c0 -10 -11 -42 -25 -71 -14 -30 -20 -52 -14 -50 10 3 59
111 59 130 0 4 -4 8 -10 8 -5 0 -10 -8 -10 -17z"/>
<path d="M1197 3793 c-10 -9 -9 -23 2 -23 5 0 11 7 15 15 5 15 -5 20 -17 8z"/>
<path d="M1257 3693 c-13 -27 -28 -59 -32 -73 -4 -14 -15 -30 -23 -36 -17 -12
-28 -159 -12 -149 6 4 10 15 10 26 0 10 7 19 15 19 8 0 15 4 15 9 0 5 3 18 6
28 5 15 4 15 -5 3 -18 -26 -12 3 9 43 12 21 25 60 31 85 5 26 12 57 14 70 8
34 -1 26 -28 -25z"/>
<path d="M1176 3705 c4 -8 10 -12 15 -9 14 8 10 24 -6 24 -9 0 -12 -6 -9 -15z"/>
<path d="M1175 3660 c-3 -5 -2 -10 4 -10 5 0 13 5 16 10 3 6 2 10 -4 10 -5 0
-13 -4 -16 -10z"/>
<path d="M1153 3625 c-3 -9 -3 -19 1 -22 3 -4 6 0 6 8 0 11 2 11 10 -1 8 -12
10 -11 10 8 0 25 -18 30 -27 7z"/>
<path d="M4100 3465 c-7 -9 -8 -15 -2 -15 5 0 12 7 16 15 3 8 4 15 2 15 -2 0
-9 -7 -16 -15z"/>
<path d="M4412 3389 c-19 -7 -23 -15 -20 -41 4 -43 19 -44 46 -2 30 48 22 63
-26 43z"/>
<path d="M4263 3265 c-3 -9 -3 -18 -1 -21 3 -3 8 4 11 16 6 23 -1 27 -10 5z"/>
<path d="M1708 2953 c7 -3 16 -2 19 1 4 3 -2 6 -13 5 -11 0 -14 -3 -6 -6z"/>
<path d="M1301 2824 c0 -11 3 -14 6 -6 3 7 2 16 -1 19 -3 4 -6 -2 -5 -13z"/>
<path d="M2785 2639 c-4 -6 -5 -12 -2 -15 2 -3 7 2 10 11 7 17 1 20 -8 4z"/>
<path d="M4020 2545 c0 -2 10 -10 23 -16 20 -11 21 -11 8 4 -13 16 -31 23 -31
12z"/>
<path d="M3011 2355 c-7 -20 -17 -33 -22 -30 -5 4 -9 1 -9 -4 0 -6 4 -11 10
-11 5 0 7 -8 3 -17 -4 -12 -3 -15 4 -8 11 11 36 95 31 101 -2 2 -10 -12 -17
-31z"/>
<path d="M3016 2265 c-9 -26 -7 -32 5 -12 6 10 9 21 6 23 -2 3 -7 -2 -11 -11z"/>
<path d="M2989 2197 c-35 -45 -46 -68 -14 -32 25 29 49 65 43 65 -2 0 -15 -15
-29 -33z"/>
<path d="M2844 2205 c-18 -14 -18 -15 5 -11 14 1 27 8 29 14 5 16 -10 15 -34
-3z"/>
<path d="M4280 2169 c-28 -12 -105 -35 -167 -50 -24 -6 -43 -16 -43 -21 0 -6
3 -8 7 -5 3 4 11 3 17 -3 7 -5 40 -12 75 -16 62 -6 64 -6 58 15 -3 11 -1 21 4
21 5 0 9 -6 9 -14 0 -16 15 -15 48 2 17 10 22 10 22 1 0 -7 11 -2 25 11 49 46
11 87 -55 59z m52 -18 c8 12 9 12 6 0 -6 -22 -28 -25 -27 -4 0 12 2 14 6 4 5
-11 7 -11 15 0z m-32 -16 c0 -8 -7 -15 -16 -15 -14 0 -14 3 -4 15 7 8 14 15
16 15 2 0 4 -7 4 -15z m-40 -5 c0 -5 -7 -7 -15 -4 -8 4 -15 8 -15 10 0 2 7 4
15 4 8 0 15 -4 15 -10z m-90 -14 c0 -3 -4 -8 -10 -11 -5 -3 -10 -1 -10 4 0 6
5 11 10 11 6 0 10 -2 10 -4z m40 -6 c0 -5 -2 -10 -4 -10 -3 0 -8 5 -11 10 -3
6 -1 10 4 10 6 0 11 -4 11 -10z"/>
<path d="M2920 2115 c-19 -23 1 -40 30 -25 17 9 19 14 9 26 -15 18 -23 18 -39
-1z"/>
<path d="M2610 2089 c0 -5 5 -7 10 -4 6 3 10 8 10 11 0 2 -4 4 -10 4 -5 0 -10
-5 -10 -11z"/>
<path d="M2614 2065 c-10 -8 -14 -15 -8 -15 6 0 17 7 24 15 16 19 9 19 -16 0z"/>
<path d="M2730 2048 c-19 -16 -20 -20 -6 -14 15 5 17 4 8 -7 -7 -8 -9 -17 -6
-20 3 -3 -9 -10 -27 -16 -31 -8 -31 -11 4 -15 11 -1 60 57 66 79 5 18 -14 15
-39 -7z"/>
<path d="M3971 2044 c0 -11 3 -14 6 -6 3 7 2 16 -1 19 -3 4 -6 -2 -5 -13z"/>
<path d="M3678 2028 c-10 -12 -15 -26 -11 -31 3 -5 12 2 20 17 18 35 13 41 -9
14z"/>
<path d="M2600 2030 c0 -13 11 -13 30 0 12 8 11 10 -7 10 -13 0 -23 -4 -23
-10z"/>
<path d="M3093 2033 c-7 -2 -13 -13 -13 -24 0 -10 -6 -19 -12 -19 -9 0 -8 -3
2 -9 17 -11 33 -4 27 12 -2 7 0 20 5 30 5 9 7 17 6 16 -2 0 -9 -3 -15 -6z"/>
<path d="M3577 2023 c-3 -5 -8 -23 -12 -42 -5 -23 -4 -31 4 -27 6 4 11 3 11
-3 0 -6 6 -8 14 -5 8 3 11 15 8 30 -4 20 -7 23 -14 12 -7 -9 -8 -4 -4 15 6 26
2 36 -7 20z"/>
<path d="M3035 1993 l-18 -28 27 24 c28 26 31 31 17 31 -5 0 -17 -12 -26 -27z"/>
<path d="M3125 1995 c-11 -15 -28 -27 -39 -29 -10 -1 -22 -10 -27 -18 -8 -14
-5 -15 21 -5 36 14 74 51 68 67 -2 6 -12 -1 -23 -15z"/>
<path d="M2600 1949 c-40 -27 -42 -30 -17 -26 15 2 27 0 27 -4 0 -15 15 -10
39 12 22 20 24 40 5 46 -5 2 -29 -11 -54 -28z"/>
<path d="M2107 1950 c3 -11 9 -17 14 -14 14 8 10 34 -5 34 -9 0 -12 -7 -9 -20z"/>
<path d="M3271 1962 c-1 -7 -5 -10 -11 -7 -6 3 -7 -1 -4 -10 4 -11 10 -13 16
-7 6 6 8 16 5 24 -4 10 -6 10 -6 0z"/>
<path d="M3380 1940 c-12 -16 -18 -30 -13 -30 5 0 17 14 26 30 10 17 16 30 13
30 -2 0 -14 -13 -26 -30z"/>
<path d="M3680 1940 c0 -16 5 -30 10 -30 6 0 10 6 10 14 0 8 3 21 6 30 4 11 1
16 -10 16 -11 0 -16 -9 -16 -30z"/>
<path d="M2508 1953 c6 -2 18 -2 25 0 6 3 1 5 -13 5 -14 0 -19 -2 -12 -5z"/>
<path d="M3390 1909 c-7 -12 -18 -18 -26 -15 -8 3 -14 -1 -14 -9 0 -8 6 -15
13 -15 8 -1 6 -5 -4 -13 -20 -15 -34 -57 -20 -57 6 0 11 3 11 8 0 10 54 72 63
72 5 0 5 -6 1 -12 -5 -9 -3 -9 7 0 12 11 11 15 -5 27 -10 8 -15 18 -11 24 3 6
4 11 1 11 -3 0 -10 -9 -16 -21z"/>
<path d="M3627 1903 c-4 -3 -7 -13 -7 -22 1 -13 3 -13 11 2 11 19 8 33 -4 20z"/>
<path d="M3465 1870 c-27 -28 -24 -44 4 -17 11 10 11 8 0 -10 -7 -12 -17 -21
-23 -20 -5 1 -11 -7 -13 -18 -3 -15 4 -11 30 17 18 20 33 46 33 57 0 12 -1 21
-1 21 -1 0 -14 -13 -30 -30z"/>
<path d="M3572 1888 c-15 -15 -16 -38 0 -38 6 0 8 3 5 6 -3 4 -2 15 4 25 11
22 8 24 -9 7z"/>
<path d="M2585 1879 c-4 -5 3 -9 14 -9 26 0 35 15 11 17 -11 1 -22 -2 -25 -8z"/>
<path d="M3500 1833 l-45 -47 45 39 c41 35 58 55 48 55 -2 0 -24 -21 -48 -47z"/>
<path d="M3591 1862 c-7 -12 -17 -22 -24 -20 -20 4 -57 -22 -57 -40 0 -14 2
-14 9 -3 12 19 43 23 54 8 6 -8 7 -8 4 3 -2 8 5 22 16 31 11 8 18 22 15 30 -3
10 -8 8 -17 -9z"/>
<path d="M2126 1842 c-2 -4 -1 -14 5 -22 7 -12 9 -10 9 8 0 23 -5 28 -14 14z"/>
<path d="M3010 1422 c0 -5 14 -9 30 -10 17 0 28 4 25 9 -8 11 -55 12 -55 1z"/>
</g>
</svg>
